<?xml version="1.0" encoding="utf-8"?>
<!-- Generator: Adobe Illustrator 18.1.1, SVG Export Plug-In . SVG Version: 6.00 Build 0)  -->
<!DOCTYPE svg PUBLIC "-//W3C//DTD SVG 1.1//EN" "http://www.w3.org/Graphics/SVG/1.1/DTD/svg11.dtd">
<svg version="1.1" id="Layer_1" xmlns="http://www.w3.org/2000/svg" xmlns:xlink="http://www.w3.org/1999/xlink" x="0px" y="0px"
	 viewBox="0 0 50 50" enable-background="new 0 0 50 50" xml:space="preserve">
<path fill="#FFFFFF" d="M17.3,6.2c5.8,0,11.7,0,17.5,0c0,0,0,0,0,0.1c0.6,0.3,1,0.9,1.1,1.5c0.3,1.3,0.7,2.7,0.9,4
	c0.2,1,0.3,2,0.5,3c0.1,0.7,0.1,1.4,0.2,2.1c0,0.5,0.1,1,0.1,1.5c0.1,0.9,0.1,1.8-0.1,2.7c-0.4,2.2-1.4,4.2-2.9,5.8
	c-1.6,1.6-3.5,2.6-5.6,3.3c-0.4,0.1-0.7,0.2-1.1,0.3c-0.3,0.1-0.6,0.3-0.6,0.7c0,0.3,0,0.6,0,0.8c0,1.8,0,3.7,0,5.5
	c0,0.4,0,0.7,0,1.1c0,0.5,0.2,0.9,0.7,1.2c0.1,0.1,0.2,0.1,0.3,0.2c1.8,1.1,3.7,1.8,5.8,2.2c0.5,0.1,0.9,0.2,1.4,0.4s0.8,0.6,1,1.2
	c-0.1,0-0.1,0-0.2,0c-6.8,0-13.7,0-20.5,0c-0.2,0-0.2,0-0.2-0.2c0.2-0.7,0.7-1,1.3-1.1c0.8-0.2,1.6-0.4,2.4-0.6
	c1.6-0.4,3.1-1.1,4.5-2c0.2-0.1,0.4-0.3,0.5-0.5c0.2-0.2,0.2-0.5,0.2-0.9c0-2.5,0-5,0-7.5c0-0.3-0.1-0.5-0.4-0.5
	c-0.1,0-0.2,0-0.3-0.1c-3.5-0.7-6.1-2.6-8.1-5.4c-1-1.4-1.4-3-1.4-4.7c0-1.2,0-2.4,0.1-3.6c0-0.9,0.1-1.8,0.3-2.6
	c0.2-1.3,0.4-2.5,0.7-3.7c0.2-1,0.5-1.9,0.8-2.9C16.4,6.9,16.8,6.4,17.3,6.2C17.2,6.2,17.2,6.2,17.3,6.2z M28.3,12L28.3,12
	c1.8,0,3.7,0,5.5,0c0.3,0,0.3,0,0.2-0.3c-0.2-0.7-0.3-1.3-0.5-2C33.4,9.2,33.3,9,32.7,9c-4.2,0-8.4,0-12.6,0c-0.3,0-0.7,0-1,0
	c-0.5,0-0.6,0.2-0.7,0.7c-0.1,0.8-0.3,1.6-0.4,2.3c-0.3,1.8-0.7,3.6-0.8,5.4c-0.1,1.1-0.2,2.1,0,3.2c0.1,1.2,0.5,2.3,1.2,3.4
	c1.2,1.8,3.1,2.9,5.1,3.6c0.8,0.2,1.6,0.3,2.3,0.5c0.1,0,0.2,0.1,0.2-0.1c0-0.1,0-0.2-0.1-0.2c-0.2-0.1-0.4-0.2-0.6-0.3
	c-1.4-0.6-2.7-1.4-3.7-2.6c-0.9-1-1.3-2.2-1.4-3.5c-0.1-1.2,0-2.3,0.1-3.5c0.1-1.3,0.4-2.6,0.7-3.9c0.1-0.5,0.3-1,0.4-1.5
	c0.1-0.3,0.3-0.5,0.7-0.5c0.3,0,0.6,0,0.8,0C24.6,12,26.5,12,28.3,12z"/>
</svg>
