<?xml version="1.0" encoding="utf-8"?>
<!-- Generator: Adobe Illustrator 18.1.1, SVG Export Plug-In . SVG Version: 6.00 Build 0)  -->
<!DOCTYPE svg PUBLIC "-//W3C//DTD SVG 1.1//EN" "http://www.w3.org/Graphics/SVG/1.1/DTD/svg11.dtd">
<svg version="1.1" id="Layer_1" xmlns="http://www.w3.org/2000/svg" xmlns:xlink="http://www.w3.org/1999/xlink" x="0px" y="0px"
	 viewBox="0 0 50 50" enable-background="new 0 0 50 50" xml:space="preserve">
<g>
	<path fill="#FFFFFF" d="M4.6,32.1c0-0.1,0-0.3,0.1-0.4c0.1-2.1,0.6-4.1,1.5-6c2-3.8,5-6.2,9.2-7.2c0.8-0.2,1.5-0.3,2.3-0.3
		c2.4-0.1,4.7,0.4,6.9,1.5c3.1,1.6,5.2,4.1,6.5,7.3c0.4,1.1,0.7,2.3,0.8,3.5c0.1,0.8,0.1,1.7,0.1,2.5c-0.2,2.9-1.1,5.5-2.9,7.8
		c-2,2.5-4.5,4.2-7.6,4.9c-0.9,0.2-1.7,0.3-2.6,0.4c-0.1,0-0.3,0-0.4,0.1c-0.1,0-0.2,0-0.2,0c-0.1,0-0.2,0-0.2,0c-0.3,0-0.6,0-0.9,0
		c-1-0.1-2-0.3-2.9-0.6c-3.6-1.2-6.3-3.5-8-6.9c-1-1.9-1.5-3.9-1.5-6c0-0.1,0-0.3-0.1-0.4C4.6,32.2,4.6,32.1,4.6,32.1z M22.4,24.3
		c0.1-1.1-1-2.7-2.6-2.7c-1.5,0-2.6,1.4-2.6,2.7c0,1.4,1.2,2.6,2.6,2.6C21.3,26.9,22.4,25.6,22.4,24.3z M20.6,28.8
		c-0.9,0-1.7,0.8-1.7,1.7c0,1,0.9,1.7,1.7,1.7c0.9,0,1.7-0.8,1.7-1.7C22.3,29.6,21.5,28.8,20.6,28.8z M24,26.9
		c0,0.9,0.7,1.7,1.7,1.7c0.9,0,1.7-0.8,1.7-1.7c0-0.9-0.8-1.8-1.7-1.7C24.6,25.2,23.9,26.2,24,26.9z"/>
	<path fill="#FFFFFF" d="M45.4,31.4c0,0.1,0,0.2,0,0.3c0,0.8,0,1.5-0.1,2.3c-0.1,1.1-0.2,2.1-0.3,3.2c-0.1,1-0.2,1.9-0.4,2.8
		c-0.1,0.8-0.2,1.6-0.4,2.4c-0.2,1.1-0.8,1.6-1.9,1.7c-0.8,0.1-1.6,0.2-2.4,0.2c-0.7,0-1.4,0.1-2.1,0c-1.2,0-2.4-0.1-3.6-0.4
		c-1.3-0.3-2.2-1.3-2.3-2.6c-0.1-0.7,0-1.4,0.4-2c0.7-1.4,1.2-2.9,1.5-4.4c0.2-1.2,0.3-2.4,0.2-3.6c-0.1-2-0.6-3.9-1.5-5.6
		c-0.3-0.6-0.4-1.2-0.2-1.8c0.3-0.9,0.6-1.9,1-2.8c0.3-0.9,1-1.2,1.9-1.2c1.8,0,3.5,0,5.3,0c0.4,0,0.8,0.1,1.2,0.1
		c0.6,0.1,1.1,0.5,1.4,1c0.3,0.7,0.7,1.5,1,2.3c0.6,1.5,1,3.1,1.2,4.7c0.1,0.9,0.1,1.8,0.2,2.8c0,0.1,0,0.2,0,0.3
		C45.4,31.2,45.4,31.3,45.4,31.4z"/>
	<path fill="#FFFFFF" d="M38.4,3.8c0.2,0,0.5,0.1,0.7,0.1c0.2,0,0.5,0.1,0.7,0.3c0.6,0.5,1.2,0.9,1.7,1.4c0.9,0.8,1.1,1.9,1,3
		c-0.1,1.3-0.5,2.6-0.8,3.9c0,0.2-0.1,0.2-0.3,0.2c-2.1,0-4.1,0-6.2,0c-0.2,0-0.3-0.1-0.3-0.2c-0.2-1-0.5-2-0.7-3
		C34,8.8,34,8.1,34.1,7.4c0.2-0.9,0.7-1.6,1.4-2.2C36,4.8,36.6,4.4,37.2,4c0.2-0.1,0.5-0.1,0.7-0.2C38,3.8,38.2,3.8,38.4,3.8
		C38.3,3.8,38.3,3.8,38.4,3.8z"/>
	<path fill="#FFFFFF" d="M34.5,18c0-0.5,0.1-0.9,0.1-1.4c0.1-0.5,0.1-1.1,0.2-1.6c0-0.1,0.1-0.2,0.2-0.2c2.1,0,4.2,0,6.3,0
		c0.1,0,0.2,0,0.2,0.2c0.2,1,0.4,1.9,0.6,2.9c0,0.2,0,0.2-0.2,0.2c-2.4,0-4.9,0-7.3,0C34.6,18,34.5,18,34.5,18z"/>
</g>
</svg>
