<?xml version="1.0" encoding="utf-8"?>
<!-- Generator: Adobe Illustrator 18.1.1, SVG Export Plug-In . SVG Version: 6.00 Build 0)  -->
<!DOCTYPE svg PUBLIC "-//W3C//DTD SVG 1.1//EN" "http://www.w3.org/Graphics/SVG/1.1/DTD/svg11.dtd">
<svg version="1.1" id="Layer_1" xmlns="http://www.w3.org/2000/svg" xmlns:xlink="http://www.w3.org/1999/xlink" x="0px" y="0px"
	 viewBox="0 0 50 50" enable-background="new 0 0 50 50" xml:space="preserve">
<g>
	<path fill="#FFFFFF" d="M22.7,6.2L22.7,6.2c0.1,0,0.2,0,0.3,0c1,0,2,0.1,3,0.3c4.1,0.9,7.5,3,9.9,6.5c1.3,1.9,2.1,3.9,2.5,6.1
		c0.1,0.6,0.1,1.1,0,1.7c-0.1,0.7-0.5,1.3-1.1,1.8c-1.1,1-2.1,2.1-3.2,3.1c-3.5,3.5-6.9,7-10.4,10.4c-0.3,0.3-0.6,0.6-0.9,0.9
		c-0.3,0.3-0.7,0.4-1.1,0.4c-0.6,0-1.3-0.1-1.9-0.2c-3.9-0.7-7-2.7-9.4-5.8c-2-2.6-3.1-5.5-3.3-8.8c-0.1-1.1,0-2.2,0.2-3.3
		c0.3-1.8,0.9-3.6,1.8-5.2c1.5-2.8,3.7-4.9,6.5-6.4C17.7,6.6,19.9,6,22.3,6C22.5,6.2,22.6,6.2,22.7,6.2z M23.7,25.9
		c0-3.1-2.5-5.7-5.7-5.8c-3.1,0-5.8,2.5-5.8,5.7c0,3.3,2.6,5.8,5.8,5.8C21.3,31.6,23.8,28.9,23.7,25.9z"/>
	<path fill="#FFFFFF" d="M24.9,37.5c4.5-4.5,9.1-9,13.6-13.6c-0.1,0.5-0.2,1-0.2,1.5c-0.1,0.8-0.2,1.6-0.3,2.5
		c-0.1,0.6-0.1,1.3,0,1.9c0,0.9,0.1,1.8,0.3,2.7c0.1,0.5,0.4,0.9,0.7,1.3c1.6,1.6,3.2,3.3,4.9,4.9c0.2,0.3,0.5,0.5,0.7,0.8
		c0.3,0.4,0.3,0.9,0,1.4c-0.1,0.1-0.2,0.2-0.3,0.4c-0.7,0.7-1.5,1.5-2.2,2.2c0,0,0,0-0.1,0.1c-0.6,0.5-1,0.5-1.6,0
		c-0.4-0.3-0.7-0.6-1-0.9c-1.4-1.5-2.9-2.9-4.3-4.4c-0.7-0.7-1.5-1.1-2.5-1.1s-2,0.1-3,0.1c-0.9,0-1.7,0.1-2.6,0.1
		C26.2,37.4,25.5,37.4,24.9,37.5z"/>
</g>
</svg>
