<?xml version="1.0" encoding="utf-8"?>
<!-- Generator: Adobe Illustrator 18.1.1, SVG Export Plug-In . SVG Version: 6.00 Build 0)  -->
<!DOCTYPE svg PUBLIC "-//W3C//DTD SVG 1.1//EN" "http://www.w3.org/Graphics/SVG/1.1/DTD/svg11.dtd">
<svg version="1.1" id="Layer_1" xmlns="http://www.w3.org/2000/svg" xmlns:xlink="http://www.w3.org/1999/xlink" x="0px" y="0px"
	 viewBox="0 0 30 30" enable-background="new 0 0 30 30" xml:space="preserve">
<path fill="#FFFFFF" d="M28.9,52.1c-0.3,0.5-0.9,0.6-1.4,0.6c-1.5,0-3,0-4.5,0c-0.2,0-0.5-0.1-0.7-0.2c-0.5-0.4-1-0.8-1.4-1.2
	c-0.6-0.6-1.1-1.2-1.6-1.8c-0.2-0.2-0.5-0.4-0.8-0.3c-0.6,0.1-0.7,0.3-0.8,0.8c-0.1,0.6-0.2,1.3-0.3,1.9c-0.1,0.6-0.4,0.8-1,0.9
	c-1.7,0.2-3.4-0.1-5-0.8c-1.9-0.8-3.4-2.1-4.7-3.7c-2.1-2.7-3.8-5.7-5.2-8.8c0-0.1-0.1-0.2-0.1-0.3C1,38.6,1.4,38,2.1,38
	c1.3,0,2.5,0,3.8,0c0.8,0,1.1,0.3,1.4,0.9c0.6,1.4,1.2,2.7,2,3.9c0.3,0.4,0.6,0.8,0.9,1.2c0.1,0.2,0.3,0.3,0.5,0.5
	c0.4,0.3,0.6,0.2,0.8-0.2c0.1-0.4,0.3-0.7,0.3-1.1c0.1-1.3,0-2.6-0.2-3.8c0-0.2-0.2-0.4-0.3-0.4c-0.3-0.2-0.6-0.3-0.9-0.3
	c-0.2-0.1-0.2-0.1-0.2-0.3c0.1-0.6,0.4-0.9,1-0.9c0.9-0.1,1.7-0.1,2.6-0.1c0.7,0,1.4,0,2.1,0c0.4,0,0.8,0.2,1.1,0.4
	c0.3,0.2,0.3,0.5,0.3,0.8c0,0.7,0,1.4,0,2.1c0,1.1,0,2.1,0,3.2c0,0.3,0.1,0.5,0.2,0.8c0.1,0.3,0.3,0.3,0.6,0.1
	c0.3-0.2,0.6-0.5,0.8-0.8c1.3-1.4,2.1-3.1,2.8-4.8c0-0.1,0.1-0.1,0.1-0.2c0.2-0.6,0.6-0.9,1.3-0.9c1.6,0,3.1,0,4.7,0
	c0.5,0,0.7,0.2,0.7,0.6c0,0.7-0.2,1.4-0.7,2c-1.2,1.6-2.3,3.1-3.5,4.6c-0.1,0.1-0.2,0.3-0.2,0.5c-0.1,0.4,0,0.8,0.3,1.1
	c1,1,2,1.9,2.9,2.9c0.6,0.6,1.1,1.3,1.4,2.1C28.9,51.9,28.9,52,28.9,52.1z"/>
<path fill="#FFFFFF" d="M20.5,40.6h-3.8V38c0-1,0.6-1.2,1-1.2c0.4,0,2.6,0,2.6,0v-4.3l-3.6,0c-4,0-5,3.2-5,5.2v2.8H9.5V45h2.3
	c0,5.6,0,12.4,0,12.4h4.9c0,0,0-6.9,0-12.4h3.3L20.5,40.6z"/>
<path fill="#FFFFFF" d="M27.8,36.8c-0.9,0.4-1.9,0.7-3,0.8c1.1-0.6,1.9-1.7,2.3-2.9c-1,0.6-2.1,1-3.3,1.3c-1-1-2.3-1.7-3.8-1.7
	c-2.9,0-5.2,2.3-5.2,5.2c0,0.4,0,0.8,0.1,1.2c-4.3-0.2-8.2-2.3-10.8-5.5C3.6,36.1,3.3,37,3.3,38c0,1.8,0.9,3.4,2.3,4.4
	c-0.9,0-1.7-0.3-2.4-0.7c0,0,0,0,0,0.1c0,2.5,1.8,4.6,4.2,5.1c-0.4,0.1-0.9,0.2-1.4,0.2c-0.3,0-0.7,0-1-0.1c0.7,2.1,2.6,3.6,4.9,3.6
	c-1.8,1.4-4,2.2-6.5,2.2c-0.4,0-0.8,0-1.2-0.1c2.3,1.5,5.1,2.3,8,2.3c9.6,0,14.9-8,14.9-14.9c0-0.2,0-0.5,0-0.7
	C26.2,38.8,27.1,37.9,27.8,36.8z"/>
<g>
	<g>
		<path fill="#FFFFFF" d="M24.7,7V3.6H23V7h-3.3v1.7H23v3.3h1.7V8.6H28V7H24.7z M19.2,3.3c0,0-5.3,0-7.2,0C8.3,3.3,5.3,6,5.3,9
			c0,3,2,5.4,5.4,5.4c0.2,0,0.5,0,0.7,0c-0.2,0.4-0.4,0.9-0.4,1.4c0,0.8,0.5,1.3,1,1.9c-0.4,0-0.8,0-1.3,0c-4.2,0-7.1,2.9-7.1,5.6
			c0,2.7,3.5,4.4,7.7,4.4c4.8,0,7.7-2.7,7.7-5.4c0-2.2-0.5-3.3-2.8-5c-0.7-0.5-2.1-1.5-2.1-2.2c0-0.8,0.2-1.2,1.4-2.2
			c1.2-1,2.1-2.3,2.1-3.8c0-1.7-0.7-3.3-2-4.1h1.9L19.2,3.3z M16.7,21.8c0.1,0.3,0.1,0.5,0.1,0.8c0,2.2-1.4,3.9-5.5,3.9
			c-2.9,0-5-1.8-5-4c0-2.2,2.4-4,5.3-4c0.7,0,1.3,0.1,1.9,0.3C15.1,19.9,16.4,20.6,16.7,21.8z M12.1,13.3c-1.9-0.1-3.8-1.8-4.1-4.4
			c-0.3-2.5,1-4.5,2.9-4.4c1.9,0.1,3.6,2.1,3.9,4.7C15.1,11.7,14,13.3,12.1,13.3z"/>
	</g>
</g>
</svg>
