<?xml version="1.0" encoding="utf-8"?>
<!-- Generator: Adobe Illustrator 18.1.1, SVG Export Plug-In . SVG Version: 6.00 Build 0)  -->
<!DOCTYPE svg PUBLIC "-//W3C//DTD SVG 1.1//EN" "http://www.w3.org/Graphics/SVG/1.1/DTD/svg11.dtd">
<svg version="1.1" id="Layer_1" xmlns="http://www.w3.org/2000/svg" xmlns:xlink="http://www.w3.org/1999/xlink" x="0px" y="0px"
	 viewBox="0 0 15 15" enable-background="new 0 0 15 15" xml:space="preserve">
<g>
	<path fill="#FFFFFF" d="M12.5,14c-3.3,0-6.6,0-10,0c0,0-0.1,0-0.1,0c-0.7-0.1-1.2-0.6-1.4-1.3c0-0.1,0-0.2-0.1-0.2
		c0-3.3,0-6.6,0-10c0,0,0-0.1,0-0.1c0.1-0.7,0.6-1.2,1.2-1.4c0.1,0,0.2,0,0.2-0.1c3.3,0,6.6,0,10,0c0,0,0.1,0,0.1,0
		c0.7,0.1,1.2,0.6,1.4,1.2c0,0.1,0,0.2,0.1,0.2c0,3.3,0,6.6,0,10c0,0,0,0.1,0,0.1c-0.1,0.7-0.6,1.2-1.2,1.4C12.7,14,12.6,14,12.5,14
		z M7.5,2.1c-1.6,0-3.1,0-4.7,0c-0.5,0-0.7,0.3-0.7,0.7c0,0.8,0,1.6,0,2.4c0,0.1,0,0.1,0.1,0.1c0.8,0,1.7,0,2.5,0
		c0.1,0,0.1,0,0.2-0.1C5.1,5.2,5.2,5,5.4,4.9c0.5-0.3,1.1-0.5,1.7-0.6c0.7-0.1,1.4,0,2,0.3c0.4,0.2,0.7,0.4,1,0.7
		c0,0,0.1,0.1,0.1,0.1c0.9,0,1.7,0,2.6,0c0.1,0,0.1,0,0.1-0.1c0-0.8,0-1.7,0-2.5c0-0.1-0.1-0.3-0.1-0.4c-0.1-0.2-0.3-0.3-0.6-0.3
		C10.7,2.1,9.1,2.1,7.5,2.1z M7.5,5.3C6,5.4,4.8,6.5,4.8,8.1c0,1.5,1.2,2.7,2.7,2.7c1.5,0,2.7-1.2,2.7-2.7C10.2,6.5,9,5.3,7.5,5.3z"
		/>
	<path fill="#FFFFFF" d="M11.3,4.8c-0.3,0-0.6,0-0.9,0c-0.2,0-0.2,0-0.2-0.2c0-0.6,0-1.2,0-1.7c0-0.2,0-0.2,0.2-0.2
		c0.6,0,1.2,0,1.7,0c0.2,0,0.2,0,0.2,0.2c0,0.6,0,1.2,0,1.7c0,0.2,0,0.2-0.2,0.2C11.9,4.8,11.6,4.8,11.3,4.8
		C11.3,4.8,11.3,4.8,11.3,4.8z"/>
	<path fill="#FFFFFF" d="M7.1,6.5c0.8-0.2,1.5,0.1,1.9,0.8c0.3,0.6,0.2,1.4-0.3,1.9c-0.5,0.5-1.3,0.6-2,0.3C6.1,9.1,5.8,8.4,6,7.6
		C6.2,7.9,6.4,8.1,6.8,8C7,8,7.2,7.9,7.3,7.7C7.5,7.5,7.5,7.3,7.5,7C7.4,6.8,7.3,6.6,7.1,6.5z"/>
</g>
</svg>
