<?xml version="1.0" encoding="utf-8"?>
<!-- Generator: Adobe Illustrator 18.1.1, SVG Export Plug-In . SVG Version: 6.00 Build 0)  -->
<!DOCTYPE svg PUBLIC "-//W3C//DTD SVG 1.1//EN" "http://www.w3.org/Graphics/SVG/1.1/DTD/svg11.dtd">
<svg version="1.1" id="Layer_1" xmlns="http://www.w3.org/2000/svg" xmlns:xlink="http://www.w3.org/1999/xlink" x="0px" y="0px"
	 viewBox="0 0 30 30" enable-background="new 0 0 30 30" xml:space="preserve">
<path fill="#FFFFFF" d="M28.9,52.1c-0.3,0.5-0.9,0.6-1.4,0.6c-1.5,0-3,0-4.5,0c-0.2,0-0.5-0.1-0.7-0.2c-0.5-0.4-1-0.8-1.4-1.2
	c-0.6-0.6-1.1-1.2-1.6-1.8c-0.2-0.2-0.5-0.4-0.8-0.3c-0.6,0.1-0.7,0.3-0.8,0.8c-0.1,0.6-0.2,1.3-0.3,1.9c-0.1,0.6-0.4,0.8-1,0.9
	c-1.7,0.2-3.4-0.1-5-0.8c-1.9-0.8-3.4-2.1-4.7-3.7c-2.1-2.7-3.8-5.7-5.2-8.8c0-0.1-0.1-0.2-0.1-0.3C1,38.6,1.4,38,2.1,38
	c1.3,0,2.5,0,3.8,0c0.8,0,1.1,0.3,1.4,0.9c0.6,1.4,1.2,2.7,2,3.9c0.3,0.4,0.6,0.8,0.9,1.2c0.1,0.2,0.3,0.3,0.5,0.5
	c0.4,0.3,0.6,0.2,0.8-0.2c0.1-0.4,0.3-0.7,0.3-1.1c0.1-1.3,0-2.6-0.2-3.8c0-0.2-0.2-0.4-0.3-0.4c-0.3-0.2-0.6-0.3-0.9-0.3
	c-0.2-0.1-0.2-0.1-0.2-0.3c0.1-0.6,0.4-0.9,1-0.9c0.9-0.1,1.7-0.1,2.6-0.1c0.7,0,1.4,0,2.1,0c0.4,0,0.8,0.2,1.1,0.4
	c0.3,0.2,0.3,0.5,0.3,0.8c0,0.7,0,1.4,0,2.1c0,1.1,0,2.1,0,3.2c0,0.3,0.1,0.5,0.2,0.8c0.1,0.3,0.3,0.3,0.6,0.1
	c0.3-0.2,0.6-0.5,0.8-0.8c1.3-1.4,2.1-3.1,2.8-4.8c0-0.1,0.1-0.1,0.1-0.2c0.2-0.6,0.6-0.9,1.3-0.9c1.6,0,3.1,0,4.7,0
	c0.5,0,0.7,0.2,0.7,0.6c0,0.7-0.2,1.4-0.7,2c-1.2,1.6-2.3,3.1-3.5,4.6c-0.1,0.1-0.2,0.3-0.2,0.5c-0.1,0.4,0,0.8,0.3,1.1
	c1,1,2,1.9,2.9,2.9c0.6,0.6,1.1,1.3,1.4,2.1C28.9,51.9,28.9,52,28.9,52.1z"/>
<path fill="#FFFFFF" d="M27.8,6.8c-0.9,0.4-1.9,0.7-3,0.8C25.9,7,26.7,6,27.1,4.8c-1,0.6-2.1,1-3.3,1.3c-1-1-2.3-1.7-3.8-1.7
	c-2.9,0-5.2,2.3-5.2,5.2c0,0.4,0,0.8,0.1,1.2C10.5,10.6,6.6,8.5,4,5.3C3.6,6.1,3.3,7,3.3,8c0,1.8,0.9,3.4,2.3,4.4
	c-0.9,0-1.7-0.3-2.4-0.7c0,0,0,0,0,0.1c0,2.5,1.8,4.6,4.2,5.1c-0.4,0.1-0.9,0.2-1.4,0.2c-0.3,0-0.7,0-1-0.1c0.7,2.1,2.6,3.6,4.9,3.6
	c-1.8,1.4-4,2.2-6.5,2.2c-0.4,0-0.8,0-1.2-0.1c2.3,1.5,5.1,2.3,8,2.3c9.6,0,14.9-8,14.9-14.9c0-0.2,0-0.5,0-0.7
	C26.2,8.8,27.1,7.9,27.8,6.8z"/>
</svg>
