<?xml version="1.0" encoding="utf-8"?>
<!-- Generator: Adobe Illustrator 18.1.1, SVG Export Plug-In . SVG Version: 6.00 Build 0)  -->
<!DOCTYPE svg PUBLIC "-//W3C//DTD SVG 1.1//EN" "http://www.w3.org/Graphics/SVG/1.1/DTD/svg11.dtd">
<svg version="1.1" id="Layer_1" xmlns="http://www.w3.org/2000/svg" xmlns:xlink="http://www.w3.org/1999/xlink" x="0px" y="0px"
	 viewBox="0 0 765 20" enable-background="new 0 0 765 20" xml:space="preserve">
<g>
	<path fill="#C2C2C2" d="M41,6.6c-0.3-0.5-0.6-0.9-1-1.2c-0.3-0.2-0.6-0.4-0.9-0.4l0,0L39,5c-0.1,0-0.3,0-0.4,0h0l0,0l0,0.1
		l-2.2,0.1L34,5.4l-4.2,0.4L28.6,6l-1.5,0.2l-0.3,0l-4.3,0.4l-3,0.3l-4.7,0.5l-3,0.4L11.2,8h-0.3L9,8.2L7.1,8.3l-2,0.2L4.2,8.3
		L3.7,8H3.5L2.8,8.4L2,8.7v4.4l4,0.2l0.8,0l1.7,0.1l1.8,0.1l5.3,0.3l1.2,0.1l2.2,0.1l0.3,0l5,0.2l1.4,0.1l1.7,0.1l0.3,0l3.8,0.2
		l1.1,0.1l1.3,0.1l2.2,0.1l2.4,0.2l0.1,0l0,0c0.5,0,1-0.2,1.4-0.5c0.6-0.5,1-1.1,1.3-1.9c0.3-0.8,0.5-1.7,0.5-2.6
		C41.8,8.7,41.5,7.5,41,6.6z M36.2,13.1L34,12.9l-1.3-0.1l-1.1-0.1l-3.8-0.2l-0.3,0l-1.7-0.1l-1.4-0.1l-5-0.2l-0.3,0l-2.2-0.1
		l-1.2-0.1l-5.3-0.3l-1.8-0.1L7,11.6l-0.8,0L4,11.5v-1.2L4.1,10h0l1,0.1l0.1,0.1L7.3,10l1.2,0h0.2l2-0.4l1.2-0.2l3-0.3l4.7-0.5
		l3-0.3l4.3-0.4l0.3,0l1.5-0.2L30,7.6l4.2-0.4L36.6,7c-0.1,0.1-0.1,0.2-0.1,0.3c-0.2,0.5-0.5,1.6-0.5,2.7s0.6,3,0.6,3L36.2,13.1z
		 M38.8,12c-0.1,0.1-0.1,0.2-0.2,0.3c0,0,0,0,0-0.1c-0.2-0.3-0.7-1-0.8-1.5c0-0.2-0.1-0.5-0.1-0.8c0-0.3,0-0.5,0-0.7
		c0.1-0.6,0.3-1.2,0.5-1.5c0.1-0.1,0.2-0.2,0.2-0.2c0,0,0,0,0.1,0.1c0.1,0.2,0.3,0.5,0.4,0.9c0.1,0.4,0.2,0.9,0.2,1.5
		C39.2,10.8,39,11.5,38.8,12z"/>
	<line fill="#C2C2C2" x1="5.2" y1="10.3" x2="5.2" y2="10.3"/>
</g>
<g>
	<path fill="#C2C2C2" d="M755.2,15.2C751.9,15.4,744,16,744,16l-21.4-2.5l-18-2.6l-18,2.6l-18.1-1l-18-2.6l-17,2.6l-19-1.9l-18,1.9
		l-18-2.6l-18,2.6l-18.6-0.7l-18.6,0.7l-18-2.6l-18,2.6l-18-1.9l-19,1.9l-17-2.6l-18,2.6l-18.2,1l-18-2.6l-18,2.6l-18-1.9l-19,1.9
		l-17-2.6l-16.3,2.4l-0.8,0.1l-0.8-0.1l-16.3-2.4l-17,2.6l-19-1.9l-18,1.9l-18-2.6l-18,2.6l-18.1-1l-18-2.6l-17,2.6l-19-1.9l-18,1.9
		l-18-2.6l-18,2.6l-18.4-0.4c0,0-0.6-0.7-0.6-1.6c0-0.8,0.4-1.6,0.4-1.6l18.5,1.9c0,0.1,21.6-2.5,21.6-2.6l14.5,3.1l18-2.6l18,2.6
		l18-2.6l17.2,2.1l18.9,0.9c0,0.1,21.6-2.5,21.6-2.6l14.5,3.1l18-2.6l18,2.6l18-2.6l17,2.1l17-2.1l18,2.6l18-2.6l18,2.6L376,9.3
		c0,0.1,21.6,2.7,21.6,2.6l18.9-0.9l17.2-2.1l18,2.6l18-2.6l18,2.6L502,8.3c0,0.1,21.6,2.7,21.6,2.6L542.1,9c0,0,0,0,0,0h0.1
		c0,0,0,0,0,0l18.5,1.9c0,0.1,21.6-2.5,21.6-2.6l14.5,3.1l18-2.6l18,2.6l18-2.6l17.2,2.1l18.9,0.9c0,0.1,21.6-2.5,21.6-2.6l14.5,3.1
		L744,14c0,0,7.2,0.3,10.8,0.1c3.6-0.2,5.8-3.3,5.1-6.6c-0.5-2.2-2.7-3.9-5.1-3.7c-2.4,0.2-3.5,1.9-3.7,4c-0.3,2.1,0.6,3.5,3.4,3.2
		c-0.2-0.4-0.4-0.7-0.4-0.9c0-1-0.1-2.1,0.2-3.1c0.1-0.2,1.8-0.4,2-0.1c0.6,1,1.4,2.7,1,3.2c-0.9,1.1-2.5,2.2-3.8,2.3
		c-2.1,0.1-3.7-1.4-4.1-3.6c-0.7-3.2,1.6-6.8,4.6-7.4c3.5-0.7,6.7,1.3,7.5,4.7C762.7,10.5,759.8,14.9,755.2,15.2z"/>
</g>
</svg>
