<?xml version="1.0" encoding="utf-8"?>
<!-- Generator: Adobe Illustrator 18.1.1, SVG Export Plug-In . SVG Version: 6.00 Build 0)  -->
<!DOCTYPE svg PUBLIC "-//W3C//DTD SVG 1.1//EN" "http://www.w3.org/Graphics/SVG/1.1/DTD/svg11.dtd">
<svg version="1.1" id="Layer_1" xmlns="http://www.w3.org/2000/svg" xmlns:xlink="http://www.w3.org/1999/xlink" x="0px" y="0px"
	 viewBox="0 0 765 20" enable-background="new 0 0 765 20" xml:space="preserve">
<polygon fill="#C2C2C2" points="763.7,11.2 763.7,10.8 216.1,12 216.1,7.9 762.9,9.1 763,11.2 763.7,11.2 763.7,10.8 763.7,11.2 
	764.5,11.2 764.5,8.4 214.6,7.2 214.6,12.7 764.5,11.5 764.5,11.2 "/>
<path fill="#C2C2C2" d="M211.2,6.9V6.5H5c-2.7,0-4.9,0.9-4.9,2v2.8c0,1.1,2.2,2,4.9,2h206.2c2.7,0,4.9-0.9,4.9-2V8.6
	c0-1.1-2.2-2-4.9-2V6.9v0.3c0.9,0,1.7,0.2,2.3,0.4s1,0.6,1,1v2.8c0,0.4-0.4,0.7-1,1s-1.4,0.4-2.3,0.4H5c-0.9,0-1.7-0.2-2.3-0.4
	s-1-0.6-1-1V8.6c0-0.4,0.4-0.7,1-1S4.1,7.2,5,7.2h206.2V6.9z"/>
<rect x="755.9" y="8.4" fill="#C2C2C2" width="8.6" height="3.1"/>
</svg>
