<?xml version="1.0" encoding="utf-8"?>
<!-- Generator: Adobe Illustrator 18.1.1, SVG Export Plug-In . SVG Version: 6.00 Build 0)  -->
<!DOCTYPE svg PUBLIC "-//W3C//DTD SVG 1.1//EN" "http://www.w3.org/Graphics/SVG/1.1/DTD/svg11.dtd">
<svg version="1.1" id="Layer_1" xmlns="http://www.w3.org/2000/svg" xmlns:xlink="http://www.w3.org/1999/xlink" x="0px" y="0px"
	 viewBox="0 0 765 20" enable-background="new 0 0 765 20" xml:space="preserve">
<path fill="none" stroke="#C2C2C2" stroke-width="2" d="M733.2,8.4C733.2,8.4,733.2,8.4,733.2,8.4C733.2,8.4,733.2,8.4,733.2,8.4
	L733.2,8.4z"/>
<path fill="none" stroke="#C2C2C2" stroke-width="2" d="M733.4,8.4C733.3,8.4,733.3,8.4,733.4,8.4l-0.1,0
	C733.3,8.4,733.3,8.4,733.4,8.4z"/>
<path fill="none" stroke="#C2C2C2" stroke-width="2" d="M745.5,15.1L745.5,15.1c-0.1,0-0.1,0.1-0.1,0.1c-1.6,0.3-3.3-1.4-3.8-3.9
	c-0.5-2.5,0.3-4.8,1.8-5.1c0,0,0,0,0.1,0l0,0l3.8-0.8l0,0c-1.5,0.3-2.3,2.6-1.8,5.1c0.5,2.3,2,4,3.5,4L745.5,15.1z"/>
<ellipse transform="matrix(0.9769 -0.2136 0.2136 0.9769 15.8991 162.2437)" fill="none" stroke="#C2C2C2" stroke-width="2" cx="758.6" cy="7.6" rx="2.9" ry="4.6"/>
<path fill="none" stroke="#C2C2C2" stroke-width="2" d="M733.3,8.4c-0.1,0-0.4,0.1-0.6,0.1l0,0c0.1,0,0.1,0,0.2-0.1c0,0,0.1,0,0.1,0
	c0,0,0,0,0.1,0C733.2,8.4,733.2,8.4,733.3,8.4L733.3,8.4z"/>
<path fill="none" stroke="#C2C2C2" stroke-width="2" d="M734.9,17.5c-1.5,0.3-3.3-1.4-3.8-3.9c-0.5-2.4,0.2-4.5,1.5-5.1c0,0,0,0,0,0
	c0.2,0,0.5-0.1,0.6-0.1c0,0,0,0,0,0c0,0-0.1,0-0.1,0c0,0,0,0-0.1,0L757.6,3c-1.5,0.4-2.3,2.7-1.8,5.1c0.5,2.5,2.2,4.3,3.8,3.9
	C759.6,12.1,736.5,17.1,734.9,17.5z"/>
<path fill="none" stroke="#C2C2C2" stroke-width="2" d="M733.4,8.4C733.3,8.4,733.3,8.4,733.4,8.4c-0.2,0-0.5,0.1-0.7,0.1l0,0
	l0.3-0.1c0,0,0,0,0.1,0l0.1,0c0,0,0,0,0.1,0C733.3,8.4,733.3,8.4,733.4,8.4z"/>
<path fill="none" stroke="#C2C2C2" stroke-width="2" d="M733.2,8.4C733.2,8.4,733.2,8.4,733.2,8.4C733.2,8.4,733.2,8.4,733.2,8.4
	L733.2,8.4z"/>
<path fill="none" stroke="#C2C2C2" stroke-width="2" d="M733.4,8.4C733.3,8.4,733.3,8.4,733.4,8.4l-0.1,0
	C733.3,8.4,733.3,8.4,733.4,8.4z"/>
<path fill="none" stroke="#C2C2C2" stroke-width="2" d="M29.8,12.5c-0.1,0-0.1,0-0.2,0L5,17.2c1.5-0.3,2.4-2.6,1.9-5.1
	c-0.5-2.5-2.1-4.3-3.7-4l24.7-4.7c0,0,0.1-0.1,0.2-0.1c1.6-0.3,3.2,1.5,3.7,4C32.3,9.9,31.4,12.2,29.8,12.5z"/>
<path fill="none" stroke="#C2C2C2" stroke-width="2" d="M17.4,5.4L17.4,5.4c0.1,0,0.1-0.1,0.1-0.1c1.6-0.3,3.2,1.5,3.7,4
	c0.5,2.5-0.4,4.8-2,5.1c0,0,0,0-0.1,0l0,0l-3.8,0.7l0,0c1.5-0.3,2.4-2.6,1.9-5.1c-0.4-2.3-1.9-4-3.4-4L17.4,5.4z"/>
<ellipse transform="matrix(-0.9821 0.1883 -0.1883 -0.9821 10.5502 24.3575)" fill="none" stroke="#C2C2C2" stroke-width="2" cx="4.1" cy="12.7" rx="2.9" ry="4.6"/>
<g>
	<path fill="#C2C2C2" d="M31,9c58.1,0,87.2,2.5,116.2,5c29.1,2.5,58.2,5,116.4,5c58.2,0,87.3-2.5,116.4-5c29.1-2.5,58.1-5,116.2-5
		c58.1,0,87.2,2.5,116.2,5c29.1,2.5,60.2,0,118.4,0v-2c-58.1,0-89.2,2.5-118.2,0c-29.1-2.5-58.2-5-116.4-5c-58.2,0-87.3,2.5-116.4,5
		c-29.1,2.5-58.1,5-116.2,5c-58.1,0-87.2-2.5-116.2-5C118.3,9.5,89.2,7,31,7L31,9L31,9z"/>
</g>
</svg>
