<?xml version="1.0" encoding="utf-8"?>
<!-- Generator: Adobe Illustrator 18.1.1, SVG Export Plug-In . SVG Version: 6.00 Build 0)  -->
<!DOCTYPE svg PUBLIC "-//W3C//DTD SVG 1.1//EN" "http://www.w3.org/Graphics/SVG/1.1/DTD/svg11.dtd">
<svg version="1.1" id="Layer_1" xmlns="http://www.w3.org/2000/svg" xmlns:xlink="http://www.w3.org/1999/xlink" x="0px" y="0px"
	 viewBox="0 0 765 20" enable-background="new 0 0 765 20" xml:space="preserve">
<path fill="#C2C2C2" d="M762.2,7.8c-0.5-0.5-1.2-0.8-2-0.8H18.8C17.6,3,14,0.2,9.7,0.2c-5.3,0-9.6,4.3-9.6,9.5
	c0,5.3,4.3,9.8,9.6,9.8c4.3,0,8-3.5,9.1-6.5h741.4c1.5,0,2.8-1.5,2.8-3C763,9.2,762.7,8.3,762.2,7.8z M761.7,11.3
	c-0.4,0.4-1,0.7-1.6,0.7H18.5c-1,4-4.6,6.8-8.8,6.8c-5,0-9.1-4.1-9.1-9.1c0-5,4.1-8.8,9.1-8.8c4.2,0,7.8,3.1,8.8,7.1h741.6
	c1.3,0,2.3,0.7,2.3,2C762.4,10.6,762.1,10.9,761.7,11.3z"/>
<path fill="#C2C2C2" d="M518,9v1H12.4c-0.2,1-1.3,2.4-2.7,2.4C8.2,12.4,7,11.2,7,9.7c0-1.5,1.2-2.9,2.7-2.9c1.4,0,2.5,1.2,2.7,2.2
	H518z"/>
<rect x="21" y="11" fill="#C2C2C2" width="1" height="1"/>
<rect x="31" y="11" fill="#C2C2C2" width="1" height="1"/>
<rect x="41" y="11" fill="#C2C2C2" width="1" height="1"/>
<rect x="51" y="11" fill="#C2C2C2" width="1" height="1"/>
<rect x="61" y="11" fill="#C2C2C2" width="1" height="1"/>
<rect x="71" y="11" fill="#C2C2C2" width="1" height="1"/>
<rect x="81" y="11" fill="#C2C2C2" width="1" height="1"/>
<rect x="91" y="11" fill="#C2C2C2" width="1" height="1"/>
<rect x="101" y="11" fill="#C2C2C2" width="1" height="1"/>
<rect x="111" y="11" fill="#C2C2C2" width="1" height="1"/>
<rect x="121" y="11" fill="#C2C2C2" width="1" height="1"/>
<rect x="131" y="11" fill="#C2C2C2" width="1" height="1"/>
<rect x="141" y="11" fill="#C2C2C2" width="1" height="1"/>
<rect x="151" y="11" fill="#C2C2C2" width="1" height="1"/>
<rect x="161" y="11" fill="#C2C2C2" width="1" height="1"/>
<rect x="171" y="11" fill="#C2C2C2" width="1" height="1"/>
<rect x="181" y="11" fill="#C2C2C2" width="1" height="1"/>
<rect x="191" y="11" fill="#C2C2C2" width="1" height="1"/>
<rect x="201" y="11" fill="#C2C2C2" width="1" height="1"/>
<rect x="211" y="11" fill="#C2C2C2" width="1" height="1"/>
<rect x="221" y="11" fill="#C2C2C2" width="1" height="1"/>
<rect x="231" y="11" fill="#C2C2C2" width="1" height="1"/>
<rect x="241" y="11" fill="#C2C2C2" width="1" height="1"/>
<rect x="251" y="11" fill="#C2C2C2" width="1" height="1"/>
<rect x="261" y="11" fill="#C2C2C2" width="1" height="1"/>
<rect x="271" y="11" fill="#C2C2C2" width="1" height="1"/>
<rect x="281" y="11" fill="#C2C2C2" width="1" height="1"/>
<rect x="291" y="11" fill="#C2C2C2" width="1" height="1"/>
<rect x="301" y="11" fill="#C2C2C2" width="1" height="1"/>
<rect x="311" y="11" fill="#C2C2C2" width="1" height="1"/>
<rect x="321" y="11" fill="#C2C2C2" width="1" height="1"/>
<rect x="331" y="11" fill="#C2C2C2" width="1" height="1"/>
<rect x="331" y="11" fill="#C2C2C2" width="1" height="1"/>
<rect x="341" y="11" fill="#C2C2C2" width="1" height="1"/>
<rect x="351" y="11" fill="#C2C2C2" width="1" height="1"/>
<rect x="361" y="11" fill="#C2C2C2" width="1" height="1"/>
<rect x="371" y="11" fill="#C2C2C2" width="1" height="1"/>
<rect x="381" y="11" fill="#C2C2C2" width="1" height="1"/>
<rect x="391" y="11" fill="#C2C2C2" width="1" height="1"/>
<rect x="401" y="11" fill="#C2C2C2" width="1" height="1"/>
<rect x="411" y="11" fill="#C2C2C2" width="1" height="1"/>
<rect x="421" y="11" fill="#C2C2C2" width="1" height="1"/>
<rect x="431" y="11" fill="#C2C2C2" width="1" height="1"/>
<rect x="441" y="11" fill="#C2C2C2" width="1" height="1"/>
<rect x="451" y="11" fill="#C2C2C2" width="1" height="1"/>
<rect x="461" y="11" fill="#C2C2C2" width="1" height="1"/>
<rect x="471" y="11" fill="#C2C2C2" width="1" height="1"/>
<rect x="481" y="11" fill="#C2C2C2" width="1" height="1"/>
<rect x="491" y="11" fill="#C2C2C2" width="1" height="1"/>
<rect x="501" y="11" fill="#C2C2C2" width="1" height="1"/>
<rect x="511" y="11" fill="#C2C2C2" width="1" height="1"/>
<rect x="521" y="11" fill="#C2C2C2" width="1" height="1"/>
<rect x="531" y="11" fill="#C2C2C2" width="1" height="1"/>
<rect x="541" y="11" fill="#C2C2C2" width="1" height="1"/>
<rect x="551" y="11" fill="#C2C2C2" width="1" height="1"/>
<rect x="561" y="11" fill="#C2C2C2" width="1" height="1"/>
<rect x="571" y="11" fill="#C2C2C2" width="1" height="1"/>
<rect x="581" y="11" fill="#C2C2C2" width="1" height="1"/>
<rect x="591" y="11" fill="#C2C2C2" width="1" height="1"/>
<rect x="601" y="11" fill="#C2C2C2" width="1" height="1"/>
<rect x="611" y="11" fill="#C2C2C2" width="1" height="1"/>
<rect x="621" y="11" fill="#C2C2C2" width="1" height="1"/>
<rect x="631" y="11" fill="#C2C2C2" width="1" height="1"/>
<rect x="641" y="11" fill="#C2C2C2" width="1" height="1"/>
</svg>
