<?xml version="1.0" encoding="utf-8"?>
<!-- Generator: Adobe Illustrator 18.1.1, SVG Export Plug-In . SVG Version: 6.00 Build 0)  -->
<!DOCTYPE svg PUBLIC "-//W3C//DTD SVG 1.1//EN" "http://www.w3.org/Graphics/SVG/1.1/DTD/svg11.dtd">
<svg version="1.1" id="Layer_1" xmlns="http://www.w3.org/2000/svg" xmlns:xlink="http://www.w3.org/1999/xlink" x="0px" y="0px"
	 viewBox="0 0 765 20" enable-background="new 0 0 765 20" xml:space="preserve">
<path fill="#C2C2C2" d="M765,6.5v1.7c-3.2,4.2-7.6,6.3-12.7,6.3c-5.2,0-9.4-2.4-12.7-6.4c-0.4,0.3-0.5,0.5-0.7,0.7
	c-6.8,7.3-15.8,7.7-23.1,1.1c-0.6-0.5-1.3-0.9-1.8-1.3c-7.4,8.1-17,8.4-24.4,0.9c-1-1.1-1.6-1-2.6,0c-6.7,6.8-16.5,6.7-23-0.2
	c-0.3-0.4-0.7-0.7-1.2-1.1c-3.3,4.1-7.2,6.2-12.4,6.3c-5.2,0-9.4-2.4-12.4-6.3v0c-3,4.2-7.8,6.3-13,6.3c-5.2,0-9.5-2.4-12.8-6.4
	c-0.4,0.3-0.6,0.5-0.8,0.7c-6.8,7.3-15.8,7.7-23.2,1.1c-0.6-0.5-1.3-0.9-1.9-1.3c-7.4,8.1-17,8.4-24.4,0.9c-1-1.1-1.6-1-2.6,0
	c-6.7,6.8-16.5,6.7-23-0.2c-0.3-0.4-0.7-0.7-1.1-1.1c-3.3,4.1-7.5,6.2-12.7,6.3c-5.2,0-9.6-2.4-12.6-6.3v0c-4,4.2-7.6,6.3-12.7,6.3
	c-5.2,0-9.4-2.4-12.7-6.4c-0.4,0.3-0.5,0.5-0.7,0.7c-6.8,7.3-15.7,7.7-23.1,1.1c-0.6-0.5-1.2-0.9-1.8-1.3c-7.4,8.1-17,8.4-24.4,0.9
	c-1-1.1-1.6-1-2.6,0c-6.7,6.8-16.5,6.7-23-0.2c-0.3-0.4-0.7-0.7-1.2-1.1c-3.3,4.1-7.7,6.2-12.9,6.3c-5.2,0-8.8-2.4-12.8-6.3v0
	c-3,4.2-7.4,6.3-12.5,6.3c-5.2,0-9.3-2.4-12.6-6.4c-0.4,0.3-0.5,0.5-0.7,0.7c-6.8,7.3-15.7,7.7-23.1,1.1c-0.6-0.5-1.2-0.9-1.8-1.3
	c-7.4,8.1-17,8.4-24.4,0.9c-1-1.1-1.6-1-2.6,0c-6.7,6.8-16.5,6.7-23-0.2c-0.3-0.4-0.7-0.7-1.2-1.1c-3.3,4.1-7.4,6.2-12.6,6.3
	c-5.2,0-10.6-2.4-12.6-6.3v0c-3,4.2-7.6,6.3-12.8,6.3c-5.2,0-9.4-2.4-12.7-6.4c-0.4,0.3-0.6,0.5-0.8,0.7c-6.8,7.3-15.8,7.7-23.2,1.1
	c-0.6-0.5-1.3-0.9-1.9-1.3c-7.4,8.1-17,8.4-24.4,0.9c-1-1.1-1.6-1-2.5,0c-6.7,6.8-16.5,6.7-23-0.2c-0.3-0.4-0.7-0.7-1.1-1.1
	c-3.3,4.1-7.8,6.2-12.9,6.3c-5.2,0-10.8-2.4-12.8-6.3v0c-4,4.2-7.4,6.3-12.5,6.3c-5.2,0-9.3-2.4-12.6-6.4c-0.4,0.3-0.5,0.5-0.7,0.7
	c-6.8,7.3-15.7,7.7-23.1,1.1c-0.6-0.5-1.2-0.9-1.8-1.3c-7.4,8.1-17,8.4-24.4,0.9c-1-1.1-1.6-1-2.5,0c-6.7,6.8-16.5,6.7-23-0.2
	C26,9,25.6,8.7,25.2,8.3c-3.3,4.1-7.5,6.2-12.6,6.3c-5.2,0-9.3-2.4-12.6-6.3V6.5c3.2,3.9,7.3,6.3,12.6,6.3c5.1,0,9.3-2.2,12.6-6.3
	C25.6,7,26,7.3,26.3,7.7c6.5,6.9,16.3,7,23,0.2c1-1,1.5-1.1,2.6,0c7.4,7.5,17,7.2,24.4-0.9c0.6,0.4,1.3,0.8,1.9,1.3
	c7.4,6.6,16.4,6.1,23.1-1.1c0.2-0.2,0.4-0.3,0.7-0.7c3.3,4,7.2,6.4,12.5,6.4c5.1,0,8.5-2.2,12.5-6.3v0c2,3.9,7.6,6.3,12.8,6.3
	c5.1,0,9.4-2.2,12.7-6.3c0.4,0.4,0.9,0.7,1.2,1.1c6.5,6.9,16.4,7,23,0.2c1-1,1.5-1.1,2.6,0c7.4,7.5,17,7.2,24.4-0.9
	c0.6,0.4,1.3,0.8,1.9,1.3c7.4,6.6,16.4,6.1,23.2-1.1c0.2-0.2,0.4-0.3,0.7-0.7c3.3,4,7.5,6.4,12.7,6.4c5.1,0,9.8-2.2,12.8-6.3v0
	c2,3.9,7.4,6.3,12.6,6.3c5.1,0,9.3-2.2,12.6-6.3c0.4,0.4,0.8,0.7,1.2,1.1c6.5,6.9,16.3,7,23,0.2c1-1,1.5-1.1,2.6,0
	c7.4,7.5,17,7.2,24.4-0.9c0.6,0.4,1.3,0.8,1.9,1.3c7.4,6.6,16.4,6.1,23.1-1.1c0.2-0.2,0.4-0.3,0.7-0.7c3.3,4,7.2,6.4,12.5,6.4
	c5.1,0,9.5-2.2,12.5-6.3v0c4,3.9,7.6,6.3,12.8,6.3c5.1,0,9.4-2.2,12.7-6.3c0.4,0.4,0.9,0.7,1.2,1.1c6.5,6.9,16.4,7,23,0.2
	c1-1,1.5-1.1,2.6,0c7.4,7.5,17,7.2,24.4-0.9c0.6,0.4,1.3,0.8,1.9,1.3c7.4,6.6,16.4,6.1,23.2-1.1c0.2-0.2,0.4-0.3,0.7-0.7
	c3.3,4,7.4,6.4,12.7,6.4c5.1,0,8.7-2.2,12.7-6.3v0c3,3.9,7.4,6.3,12.6,6.3c5.1,0,9.3-2.2,12.6-6.3c0.4,0.4,0.8,0.7,1.2,1.1
	c6.5,6.9,16.3,7,23,0.2c1-1,1.5-1.1,2.6,0c7.4,7.5,17,7.2,24.4-0.9c0.6,0.4,1.3,0.8,1.9,1.3c7.4,6.6,16.4,6.1,23.2-1.1
	c0.2-0.2,0.4-0.3,0.7-0.7c3.3,4,7.7,6.4,12.9,6.4c5.1,0,10-2.2,13-6.3v0c3,3.9,7.1,6.3,12.4,6.3c5.1,0,9.2-2.2,12.5-6.3
	c0.4,0.4,0.8,0.7,1.1,1.1c6.5,6.9,16.3,7,23,0.2c1-1,1.5-1.1,2.5,0c7.4,7.5,17,7.2,24.4-0.9c0.6,0.4,1.3,0.8,1.8,1.3
	c7.4,6.6,16.4,6.1,23.1-1.1c0.2-0.2,0.4-0.3,0.7-0.7c3.3,4,7.4,6.4,12.7,6.4C757.4,12.8,761.8,10.7,765,6.5z"/>
</svg>
