<?xml version="1.0" encoding="utf-8"?>
<!-- Generator: Adobe Illustrator 18.1.1, SVG Export Plug-In . SVG Version: 6.00 Build 0)  -->
<!DOCTYPE svg PUBLIC "-//W3C//DTD SVG 1.1//EN" "http://www.w3.org/Graphics/SVG/1.1/DTD/svg11.dtd">
<svg version="1.1" id="Layer_1" xmlns="http://www.w3.org/2000/svg" xmlns:xlink="http://www.w3.org/1999/xlink" x="0px" y="0px"
	 viewBox="85.4 0 564.6 650" enable-background="new 85.4 0 564.6 650" xml:space="preserve">
<g>
	<defs>
		<path id="SVGID_1_" d="M650,650c0.5,0,0.8,0,0.8,0l1.4-650H650c0,0-485.2,0-564.6,0C85.4,535.1,650,341.4,650,650z"/>
	</defs>
	<clipPath id="SVGID_2_">
		<use xlink:href="#SVGID_1_"  overflow="visible"/>
	</clipPath>
	<path clip-path="url(#SVGID_2_)" fill="#298ECC" d="M650,650c0.5,0,0.8,0,0.8,0l1.4-650H650c0,0-485.2,0-564.6,0
		C85.4,535.1,650,341.4,650,650z"/>
	<path clip-path="url(#SVGID_2_)" fill="#298ECC" d="M652,651c0.5,0,0.8,0,0.8,0l1.4-650H652c0,0-485.2,0-564.6,0
		C87.4,536.1,652,342.4,652,651z"/>
	<g clip-path="url(#SVGID_2_)">
		<linearGradient id="SVGID_3_" gradientUnits="userSpaceOnUse" x1="645.7518" y1="461.2387" x2="186.3811" y2="455.1137">
			<stop  offset="0" style="stop-color:#26A9E0"/>
			<stop  offset="1" style="stop-color:#17479D"/>
		</linearGradient>
		<path opacity="0.8" fill="url(#SVGID_3_)" d="M455.5,277.8c-144-147-370.1-96.5-370.1-96.5v377c271.1-45.2,542.3,83.5,816.9,188.4
			V582.4C709.7,661.3,599.6,425,455.5,277.8z"/>
		<linearGradient id="SVGID_4_" gradientUnits="userSpaceOnUse" x1="85.4" y1="350.0289" x2="902.2573" y2="350.0289">
			<stop  offset="0" style="stop-color:#26A9E0"/>
			<stop  offset="1" style="stop-color:#17479D"/>
		</linearGradient>
		<path opacity="0.5" fill="url(#SVGID_4_)" d="M85.4,0v577.8C358,542.4,629.6,730.6,902.3,695.7v-96.2
			C537.7,727.8,379.9,9.4,85.4,0z"/>
		<linearGradient id="SVGID_5_" gradientUnits="userSpaceOnUse" x1="85.4" y1="410.8789" x2="902.2573" y2="410.8789">
			<stop  offset="0" style="stop-color:#26A9E0"/>
			<stop  offset="1" style="stop-color:#17479D"/>
		</linearGradient>
		<path opacity="0.5" fill="url(#SVGID_5_)" d="M85.4,93.3l0,552.9c272.6-36.4,544.2,112.4,816.9,76.6v-99.1
			C497.8,696.3,357.4,159,85.4,93.3z"/>
		<linearGradient id="SVGID_6_" gradientUnits="userSpaceOnUse" x1="85.4" y1="498.4883" x2="902.2573" y2="498.4883">
			<stop  offset="0" style="stop-color:#26A9E0"/>
			<stop  offset="1" style="stop-color:#17479D"/>
		</linearGradient>
		<path opacity="0.4" fill="url(#SVGID_6_)" d="M85.4,249.3l0,471c32.6-13,460.3-194.2,816.9,27.4v-98.9
			C452.8,669.5,357.4,306.2,85.4,249.3z"/>
		<linearGradient id="SVGID_7_" gradientUnits="userSpaceOnUse" x1="499.6998" y1="809.2977" x2="480.0273" y2="485.4578">
			<stop  offset="0" style="stop-color:#26A9E0"/>
			<stop  offset="1" style="stop-color:#17479D"/>
		</linearGradient>
		<path opacity="0.6" fill="url(#SVGID_7_)" d="M85.4,358.9v389.4h816.9v-71.4C559.1,691.8,357.7,413.8,85.4,358.9z"/>
	</g>
</g>
</svg>
