<?xml version="1.0" encoding="utf-8"?>
<!-- Generator: Adobe Illustrator 18.1.1, SVG Export Plug-In . SVG Version: 6.00 Build 0)  -->
<!DOCTYPE svg PUBLIC "-//W3C//DTD SVG 1.1//EN" "http://www.w3.org/Graphics/SVG/1.1/DTD/svg11.dtd">
<svg version="1.1" id="Layer_1" xmlns="http://www.w3.org/2000/svg" xmlns:xlink="http://www.w3.org/1999/xlink" x="0px" y="0px"
	 viewBox="0 0 875.6 727" enable-background="new 0 0 875.6 727" xml:space="preserve">
<g>
	<g opacity="0.15">
		<path fill="#FFFFFF" d="M916.6,518.2l-0.2-0.5l0.2-0.1l-0.3-0.2L899.5,87.7l0.1-0.1l-0.1-0.1l0.2-0.6l-0.4,0.3l-22.4-37.4l0-0.1
			l-0.1-0.1l-0.2-0.4l-0.1,0.1l-70.6-60.7l0-0.2l-0.2,0l-0.5-0.4l0.1,0.4L-16.1-5.2l-0.3-0.2l0,0.4L-22.2,128l-0.1-0.2l0.1,0.8
			l-0.1,0.1l0.1,0.1l0,0.6l0,0l3.5,598.8l-0.4,0.3l0.3,0.1l-0.3,0.6l0.8-0.5l112.9,22l0,0.3l0.4-0.2l0.2,0l0-0.1l638.2-12.2l0,0.2
			l0.2-0.2l0.4,0.2l-0.1-0.3l144.9-15.1l0.3,0.1l0-0.3l37.1-205.2L916.6,518.2z M41.6,73.8l38.1-33.1L6.5,161.4l-28-32.6L41.6,73.8z
			 M858.7,656.5l-35.8-16.6l92.5-121.2l-37.9,146.4L858.7,656.5z M877,665.6l-95,39.5l40.6-64.7l51.7,23.9L877,665.6z M898.8,89.9
			l-14.3,340.2l-23.9-207.9l0.2,0.1l-0.2-0.5l0.2-0.2l-0.2-0.1L886,134L898.8,89.9z M866.5,376.8l-9.3-28.8l0.1,0l-0.1-0.2l0.3-0.4
			l-0.4,0.1l-0.5-22.2l-1.1-49.9l28.2,154.2L866.5,376.8z M884.3,433.5l-96.1,4.6l68.4-89.7l2.3,7L884.3,433.5z M219.4,29.2
			l51.4,10.3l-67.4,52l5.7-22.3L219.4,29.2z M799.2,576.2l-84,52.9L704.8,525l62.9,34.1L799.2,576.2z M854.7,272l1.7,74.9l-3.8-5.3
			L805,275.4l11-0.8L854.7,272z M645.3,51.9l-0.4,68.6l-79.3-71.8l79.9-21.8L645.3,51.9z M714.6,629.3l-0.3,0l0.2,0.2l-18.5,3.7
			L597.7,653l43.1-51.8l63.4-76.1l10.3,103.6l-0.1-0.1L714.6,629.3z M651.1,116.7l-5.5,4l0.6-92.9l33.6,68.4L651.1,116.7z
			 M761.3,435.1l-33.6-3.9l25-37.1l20.9-31l13.7,75L761.3,435.1z M344,665.8l14.2-40.9l15.7-45.4l96.1,52.9L344,665.8z M257.2,155.5
			l-55.6,61.9l1.7-124.9l84.6,28.8L257.2,155.5z M711.7,429.9l-58.5-5l24.3-36.7l32-48.3l17.2,91.3L711.7,429.9z M202.8,532.9
			l0.8-1.5l34.7-63.2l20.6,74.4l-33.4-5.8L202.8,532.9z M714.2,316.4l-4.7,22.2l-120.8-61.5L725.1,265L714.2,316.4z M382.1,480.5
			l-122.6,62.1l-5-17.9l-15.8-56.9l67.1,5.9L382.1,480.5z M540.8,484.6l-114.1-5.2l29.2-32.4l65.3-72.5l19.6,109.8l-0.1,0
			L540.8,484.6z M586.8,276.8l-39.1,9.4l-5.8,1.4l-12.7-40.8l-10.7-34.5l68.5,64.5l-0.4,0L586.8,276.8z M505,291l-27.3,2.5
			l40.1-81.4l23.5,75.7L505,291z M477.7,294l0.2,0l0,0l63.5-5.7l-20.1,84.9l-26-47.2L477.7,294z M476.4,294.6L433,369.5l-44-22.3
			L476.4,294.6z M541.9,288.5l75.3,68.4l-95.5,16.7L541.9,288.5z M388.5,346.8l-22.3-47.5l110-5.2L388.5,346.8z M477.2,294.5
			L477.2,294.5l0.1-0.1l43.6,79.2l-87.3-4L477.2,294.5z M617.2,356.1l-69.1-62.7l-5.8-5.2l23.6-5.7l21.3-5.1l0,0.2l0.3-0.2
			l19.9,52.7L617.2,356.1z M517.5,211.4l-40.2,81.5l-27.5-106.7l0.1,0l0-0.1l67.3,25.1L517.5,211.4z M387.9,347.1l-88.8,34.4
			l66.4-81.9L387.9,347.1z M298.8,382.3L298.8,382.3l-0.1-0.1l89.3-34.5l-0.9,22.1l-4.3,109.8l-11.3-13.1L298.8,382.3z M383.5,478.8
			l1.1-28.4l4-102.7l22.1,11.2l22,11.1l-0.1,0.1l0.1,0l-43,94.9L383.5,478.8z M609.9,358.8l7.9-1.4l0,0l0,0l34.4,67.1l-129.7-50.5
			L609.9,358.8z M588.2,277.5L708.8,339l-90.8,17.8L588.2,277.5z M382.4,479.9l-143.5-12.7l59.4-84.7L382.4,479.9z M383.6,480
			l16.3-36l32.8-72.5l-6.9,108l-0.4,0L383.6,480z M426.5,478.9l6.9-108.7l87.4,4l-1.5,1.6L426.5,478.9z M517.6,210.6l-0.3-0.3
			l0.2,0.5l-67.5-25.2l63.7-51.6L517.6,210.6z M476.7,292.9l-89.6-84.4l62-22.4L476.7,292.9z M386.8,208.9l89.8,84.6L366,298.7
			l13.5-58.4L386.8,208.9z M330.5,341.9l-31.9,39.3l3.4-112.6l0.1,0l0,0l63.1,30.4L330.5,341.9z M652.1,425.1l-110.7,59.4
			l-19.6-110.1L652.1,425.1z M652.8,424.5l-34.5-67.2l0.2,0l0,0l90.6-17.8l-36.8,55.6L652.8,424.5z M518.4,211.3l85.2-43.9l6.3-3.2
			l-22.4,112.2L518.4,211.3z M609.6,163.7l-30.3,15.6l-61.1,31.5l-3.6-69.6l-0.4-7.4l7.1,2.2L609.6,163.7z M301.4,268.6L298,381.4
			l-82.3-86.3l44.9-13.9L301.4,268.6z M297.6,382.5l-0.2,0.3l0.1,0l-44,62.8l-14.9,21.3l0-0.1l-0.1,0.2l-43.9-55.9l-10.7-13.7
			l48.3-6.3L297.6,382.5z M155.7,483.4l27.6-85.5l0,0l0-0.1l54.6,69.5l-79.7,15.6L155.7,483.4z M383.7,480.6L383.7,480.6
			L383.7,480.6l42.1-0.6l-3.4,53.1l0,0.4l-6.2-8.4L383.7,480.6z M422.9,533.9l2.5-39.3l0.9-14.5l19,0.9l94.5,4.3l-61.3,25.5
			L422.9,533.9z M541,485.3L541,485.3L541,485.3l8,29l0,0l0,0l-124,19.3L541,485.3z M416.5,89.6l-3.4-41l99,83.6l-13.2-5.9
			L416.5,89.6z M416.7,90.4l96.6,43.1l-63.8,51.7l-18.6-53.9L416.7,90.4z M353.5,141.6l95.1,44.1l-11,4L387,207.9l0.1-0.2l-0.3,0.2
			l-28.2-56.3L353.5,141.6z M386.1,209l-20.7,89.5L312,272.8l-9.7-4.7l8.5-6L386.1,209z M301.4,267.7l-99.2-49.3l94.6-11.5l2.4,31.7
			L301.4,267.7z M301,268.1l-26.3,8.1l-59.3,18.3l-13.8-75.8L301,268.1z M297.7,381.9l-90.7,11.9l-23.3,3.1l0.2-0.6l0,0l31.5-100.8
			L297.7,381.9z M260.1,543l103.2-52.3l19.5-9.9l-9.2,97.9l-31.2-9.8L260.1,543z M549.9,514.2L549.9,514.2l-0.4,0l-7.9-28.8
			l51.9,25.4l-40.2,3.1L549.9,514.2z M594.6,510.7l-45.9-22.5l-6.8-3.3l110-59l-45.8,67.7L594.6,510.7z M710.2,338.9l0.2-0.3l-0.3,0
			l15.4-73.1l47.5,96.2L710.2,338.9z M565,49.2l44.9,113.9l-95.5-29.9l38.4-63.7L565,49.2z M415.9,89.1l-68.1-66.4l64.7,25.5
			L415.9,89.1z M426.3,119.8l22.6,65.3l-95.4-44.3l62.7-50.6L426.3,119.8z M385.7,208.6l-17.4,12.3L302,267.7l-3-39.2l-1.6-21.6
			l81,1.6L385.7,208.6z M182.7,397.2l-57.8,50.2l-25.6,22.3l14.4-128.9L182.7,397.2z M99.5,470.2l83.1-72.2l-27.5,85.3l-10.9-2.6
			L99.5,470.2z M155.9,483.9l82-16l-35.5,64.7l0,0l0,0.1l-37.7-39.5L155.9,483.9z M203,533.6l56,9.7l-5.6,31.3l-4.7,25.8l-40.8-59.7
			L203,533.6z M249.2,600.7l10.3-57.3l10.9,3.4L372.6,579l-123.1,21.7l0.1-0.1L249.2,600.7z M374.2,578.3l9.2-97.3l38.9,53.2
			l-25.1,23L374.2,578.3z M423.1,534.5l125.7-19.6l-77.8,117L423.1,534.5z M594.4,511.4l2.3,140.2l-46.9-136.8L594.4,511.4z
			 M595.2,510.8l57.6-85.2l0,0l0,0l51.2,98.4l-79.6-9.7L595.2,510.8z M702.3,519.6l-49.1-94.2l73.5,6.3l-22.4,91.9L702.3,519.6z
			 M727.3,430.7l-5.5-28.9l-11.8-62.3l37.2,13.5l25.9,9.4l-40.3,59.9L727.3,430.7z M725,264.5l-136.1,12.1l29.4-19.1l95.3-61.9
			L725,264.5l-0.1-0.1L725,264.5z M713,195.1l-0.3,0.2l0.2,0l-94.4,61.3l-30.4,19.8L610.6,164l0.3,0.1l0,0l16.9,5.1L713,195.1z
			 M610.4,163.1L565.7,49.6l79.1,71.6L610.4,163.1z M352.8,141.5l33.3,66.6l-83-1.6l-5.4-0.1l42.6-50.2L352.8,141.5z M288.2,121.9
			l8.6,84.5l-4,0.5l-90.8,11l69.1-77L288.2,121.9z M201,218.9l13.8,75.8L131,314.2l20.6-28L201,218.9z M214.7,295.3l-29.1,93.2
			l-2.5,8l-52.3-81.6l34.7-8.1L214.7,295.3z M182,395.8l-67.9-55.4l0.2,0l-0.3-0.2l0.4-0.4l-0.1,0l16.2-24.5L182,395.8z M99.3,470.8
			l19.7,4.7l35.8,8.5l-18.7,20.4l-24.8,27.1l-5.7-28.9L99.3,470.8z M111.8,531.7l13.3-14.5l30.2-33l46.4,48.7l-29.4-0.4L111.8,531.7
			z M374.3,579l28.3-25.9l19.9-18.3l47.7,97l-80.8-44.5L374.3,579z M597.3,652.6l-2.3-141.2l94.7,11.5l14.2,1.7L614.5,632
			L597.3,652.6z M803.8,275.4l-0.1,0.1l0.4,0l-30.4,86.1l-22.2-45l-25.5-51.5l26.7,3.5L803.8,275.4z M610.8,163.5l20.5-25l13.8-16.8
			l67.6,72.8L610.8,163.5z M564.5,48.9L513.8,133L413.5,48.3l24.1,0.1L564.5,48.9z M524.8,48.1l-111.9-0.4l-0.5-0.4l0,0.2
			l-63.7-25.1l211.4,25.9L524.8,48.1z M315.1,184.9l-17.8,21l-8.6-84.3l0.1,0l0,0l63.6,19.5L315.1,184.9z M202.7,92.7l-1.1,79
			l-0.6,45.6l-62.5-82.1l-7.1-9.3l71.2-33.3l-0.1,0.2L202.7,92.7z M200.5,217.8l-135.3-23l65.6-68.5L200.5,217.8z M16.9,459.8
			l81.7,10.9l-0.1,0.5l0.2-0.2l12,60.3l-47.8-36.4L16.9,459.8z M142.1,532.7l59.8,0.8l-22,41.2l-28.6,53.7l-39.7-96.1L142.1,532.7z
			 M202.4,533.7l46,67.2l-0.3,0l0.1,0.1l-96.4,27.5l22.5-42.2L202.4,533.7z M373.4,579.4l-29.9,86.3l-93.8-64.5L373.4,579.4z
			 M514.8,566.9l33.3-50.1l-45,121.2l-31.9-5.7L514.8,566.9z M718,470.3l9.4-38.5l12.4,1.4l47.2,5.4l-82,84.8L718,470.3z
			 M791.2,313.5l13.3-37.7l51.7,71.8L774.1,362L791.2,313.5z M794.4,273.6l-68.2-9l30.3-21.2l59.2-41.3l-11.5,72.8L794.4,273.6z
			 M815.2,201.6l-89.6,62.6l-6.7-40.4l-4.7-28.5l0.6,0.2l-0.2-0.3l69.4,4.3L815.2,201.6z M346.8,22.6l69,67.2l-62.6,50.6l-1.1-20.6
			L346.8,22.6z M203.6,92.1l67.8-52.3l16.7,81L203.6,92.1z M65.2,195.4l67.9,11.6l67.6,11.5l-0.2,0.2l0.1,0l-70.2,95.5l-36.2-65.9
			L65.2,195.4z M113.1,341.2L98.7,470l-0.1,0l0,0l-56.2-7.5l-26-3.5L38.6,432L113.1,341.2z M182.1,620.5l66-18.9l-67.2,95.9
			l-29.3-68.4L182.1,620.5z M420.8,712.9l-76.5-46.6L470.2,633l-30.7,49.6L420.8,712.9z M503.8,638.1l45.5-122.7l47.2,137.6l-24.9-4
			L503.8,638.1z M815.9,201L815.9,201l0,0.1l-101-6.3l112.5-58.5L815.9,201z M713.1,193.8l-32.9-35.4l-34.5-37.1l34.3-24.6l6,17.4
			L713.1,193.8z M565.2,48.2l-0.1-0.3l-0.2,0.3L352,22.2l291.8,4.5L565.2,48.2z M131,125.5L81.6,39.9l120.6,52.3L131,125.5z
			 M64.7,194.5L64.7,194.5l-0.1,0.1L7.3,162l122.7-35.5L64.7,194.5z M-3.2,277.9l2.9,0.8l130.1,36.1l-0.2,0.3l0.1,0l-16.3,24.7
			l-0.2-0.1l0,0.1L64,313.6L-3.2,277.9z M25,447.7l-9.1,11.1l-29.4-82.9l126.1-35.1L25,447.7z M4,567.6L16,459.9l94.5,72l-74.7,25
			L4,567.6z M246.5,652.8l2.6-51.1l75.2,51.6l18.6,12.8l0,0l0.1,0l-99,35.7L246.5,652.8z M422.2,711.7l43.7-70.5l5.1-8.2l0.6,0.3
			l-0.2-0.3l25,4.5l6.4,1.1l-21,19.1L422.2,711.7z M565,716.2l-60.9-77.5l68.5,11.1l23.8,3.8l-0.2,0.2l0.2,0l-10.1,20L565,716.2z
			 M597.1,653.8l57.3,39.5l-88.8,22.9L597.1,653.8z M655.1,693.1l-5.6-3.9l-51.7-35.7l116.4-23.5l-41.6,44.4L655.1,693.1z
			 M787.8,437.7l-13.7-75l0.2,0.1l-0.1-0.3l27.7-4.8l54.3-9.5l-40.5,53.1L787.8,437.7z M852.3,271.6l-47,3.2l54.6-52.4l-5.1,48.9
			L852.3,271.6z M804.9,274.4l9.4-59.5l2.1-13.1l43.4,20L804.9,274.4z M680,95.4l-33.8-68.7l59-21.8l-19.1,68.6L680,95.4z
			 M346.3,22.8l6.3,117.7l-0.3-0.1l0.1,0.1L288.8,121l4.1-7.1L346.3,22.8z M130.4,125.7l-36.9,10.7l-86.4,25L80.9,39.8L130.4,125.7z
			 M64.6,195.5l65.1,118.7L-5.2,276.8l31.3-36.5L64.6,195.5z M15.4,459l-0.6-0.1l0.6,0.5l-0.1,0.2l0.2,0l-4.5,40l-7.4,65.5
			l-17-187.2L15.4,459z M111.3,533.3l39.5,95.6l0,0l0,0l-30.1,9l-15.7,4.7l0-0.2l0,0l5.3-92.3L111.3,533.3z M181.4,697.9l43.4-61.9
			l23.8-33.9l-5.2,99.8l-7.8-0.5L181.4,697.9z M386.1,724.5l-41.5-57.3l75.5,46l-12.7,4.2L386.1,724.5z M427.5,707.7l75.9-68.9
			l61,77.7L421.6,713L427.5,707.7z M767,558l-62-33.6l82.4-85.3l12.1,136.5L767,558z M816.7,201.3l0.3-0.2l-0.5,0l11.4-64.3
			l31.9,84.3L816.7,201.3z M720.3,191.3l-6.2,3.2l0,0l-0.1,0l-33.4-97.9l146.4,39.2L720.3,191.3z M705.8,5l121,130.2L680.4,96
			L705.8,5z M649.6,24.8l-3.9,1.4l-290.2-4.5L703.8,4.8L649.6,24.8z M345.9,22.3l-38.8,66.4l-18.6,31.7l-16.6-80.9l65.9-15.3
			L345.9,22.3z M218.8,29.1L215,44l-12.3,47.8L82.1,39.5l56.8-4.3L218.8,29.1z M6.8,162.3l57.4,32.7l-0.1,0.1l0,0l-44.9,52.3
			L-5.3,276L6.3,166.8L6.8,162.3z M-5.4,277.4l118.1,62.8l-126.2,35.1L-5.4,277.4z M38.5,607.7L4.1,568.1l106-35.5l-43.7,45.8
			L38.5,607.7z M105.4,643.1l45.7-13.7l0.1,0.3l0,0l29,67.6l-44.1-32L105.4,643.1z M244.8,702.1l48.4-17.4l50.3-18.1l41.9,57.9
			l-20.1-3.2L244.8,702.1z M420.9,713.6l0.1,0.1l0.1-0.1l135.6,3.3l-168.6,7.7L420.9,713.6z M616.2,703.9l38.9-10l0.1,0.1l0,0
			l77,43.9l-165.6-21.1L616.2,703.9z M655.6,693.4l59.2-63.2l18.4,107.5L655.6,693.4z M715.7,630L822,640.3l-40.8,64.9L715.7,630z
			 M715.8,629.4l83.8-52.8l22.4,63.1l-80.5-7.8L715.8,629.4z M822.6,639.5l-12.8-36.1l-9.6-27l34-17.1l80.9-40.8L822.6,639.5z
			 M865.5,327.4l-10.2-55.7l1.7-16.4l3.2-30.9l23.1,200.7L865.5,327.4z M343.2,22.3L310.3,30l-38.5,9l0-0.2l-0.3,0.2l-10.3-2.1
			L221.5,29l115.1-6.3L343.2,22.3z M219.6,28.5L219.6,28.5l-0.4,0l-0.2,0l0,0L-7.7-4L342,21.8L219.6,28.5z M216.5,28.7L81.1,39
			l-0.2-0.3l-0.1,0.2l-95-43.2L216.5,28.7z M6.1,162l-0.2,0.4l0.3-0.1l-5.5,52.1l-6.3,59.9l-15.9-144.6L6,161.7l-0.2,0.1L6.1,162z
			 M-6,276.8l-0.2,0.3l0.2,0.1l-0.1,0.7l0,0l-1.6,18.9l-6.1,73.9l-7.7-234.3L-6,276.8z M3.8,568.7l34.3,39.4l-0.1,0.1l0.1,0
			L3.8,680.6l-21.7,45.9l8.1-58.7L3.8,568.7z M39,608l71.8-75.3l-6.3,109.7l-18.8-9.9L39,608z M180.7,698.6l0.1,0.2l0.1-0.2l0.6,0.4
			l-0.2-0.5l60.8,3.9l-145,47l33.7-20.5L180.7,698.6z M243.3,702.6L243.3,702.6l0.3-0.1l97.5,15.5l42.5,6.8L97.4,749.9L243.3,702.6z
			 M800.1,575.7l-0.7-7.5L787.9,439l127.5,78.4L800.1,575.7z M788.6,438.7l66.2-3.2l29.7-1.4l31,82.7L788.6,438.7z M871.1,183.3
			l-10.9,37.5l-5.8-15.2l-26.3-69.4l0.4,0.1l-0.4-0.5l0.3-0.2l-0.1,0l70.3-47.4L871.1,183.3z M806.1,112L706.2,4.6l99.1-15.6
			l21.9,145.8L806.1,112z M-13.6,381.3L3.3,567.8l-0.2,0.1l0.2,0.2l-5.9,42.5l-15.6,113.1l1.3-98.4L-13.6,381.3z M23.5,640.4
			l15.1-31.9l40.3,21.2l25.3,13.3l-121.9,84.5L23.5,640.4z M180.3,698.1l-85.1,51.8l9.8-106.4L180.3,698.1z M564.5,717.1l-0.1,0.1
			l0.4-0.1l0.2,0.2l0.1-0.2l120.7,15.4l41.1,5.2l-334.1-12.8L564.5,717.1z M733.8,737.8l-14.6-85.2l-3.8-22l65.3,75l-0.5,0.2l0.3,0
			l-24.3,16.6L733.8,737.8z M782.9,705.3l94.5-39.3l1.1,56.7l-96.3-17.2L782.9,705.3z M798.7-10.5L706.1,4.1l0-0.1l-0.4,0.1
			l-0.2-0.2l-0.1,0.3L371.2,20.4l64.5-4.7L798.7-10.5z M-14.1,375.5L-14.1,375.5l0,0.3l0,0.4l0,0l-4.2,321.7l-3.2-547.6L-14.1,375.5
			z M385.9,725.2L385.9,725.2l0.2,0l0.6,0.1l-0.1-0.1l179.7,6.9l157.2,6L103.3,750L385.9,725.2z M878,665.5l36.3-140.4l-35.3,195.1
			l-1.1-54.4l0.4-0.2L878,665.5z M884.9,433.7l14.2-339.1l16.5,421L884.9,433.7z M830.2,133.7l-1.7,1.1l48-84.5l22.3,37.1
			L830.2,133.7z M827.9,134.9l-6-40.1L806-10.5l70.1,60.3L827.9,134.9z M465.3,13L347,21.5l0.1-0.1l-0.3,0.1l0-0.6l-0.3,0.5
			l-0.3-0.3l0,0.4L-9-4.6l805.6-6.3L465.3,13z M-15.9-4.4l96.3,43.8l-102,88.7L-15.9-4.4z M104.4,643.6l-9.8,106.5l-112.3-21.9
			L104.4,643.6z M734.7,737.8l46.5-31.7l0.1,0.1l0.1-0.2l78.2,14l17.2,3.1L734.7,737.8z"/>
	</g>
</g>
</svg>
