<?xml version="1.0" encoding="utf-8"?>
<!-- Generator: Adobe Illustrator 18.1.1, SVG Export Plug-In . SVG Version: 6.00 Build 0)  -->
<!DOCTYPE svg PUBLIC "-//W3C//DTD SVG 1.1//EN" "http://www.w3.org/Graphics/SVG/1.1/DTD/svg11.dtd">
<svg version="1.1" id="Layer_1" xmlns="http://www.w3.org/2000/svg" xmlns:xlink="http://www.w3.org/1999/xlink" x="0px" y="0px"
	 viewBox="0 0 960 560" enable-background="new 0 0 960 560" xml:space="preserve">
<polygon fill="#F7F7F7" points="0.1,-112.7 -0.2,-112.7 -6.4,28.8 102.9,-66.3 -0.2,-113.2 -0.2,-112.7 0.1,-112.7 0,-112.4 
	101.7,-66.1 -5.7,27.4 0.4,-112.7 0.1,-112.7 0,-112.4 "/>
<polygon fill="#F7F7F7" points="0.1,-112.7 0,-112.4 102.2,-65.8 248.1,-76.9 248.2,-77.5 0.1,-113 0,-112.4 0.1,-112.7 0,-112.4 
	245.2,-77.3 102.4,-66.5 0.2,-113 0.1,-112.7 0,-112.4 "/>
<polygon fill="#F7F7F7" points="0.1,-112.7 0,-112.4 248.1,-76.9 382.1,-84.2 382.1,-84.9 0.1,-113 0,-112.4 0.1,-112.7 0.1,-112.4 
	377.4,-84.6 248.1,-77.5 0.1,-113 0.1,-112.7 0.1,-112.4 "/>
<polygon fill="#F7F7F7" points="0.1,-112.7 0.1,-112.4 382.1,-84.2 865.8,-119.1 865.8,-119.7 0.1,-113 0.1,-112.4 0.1,-112.7 
	0.1,-112.4 856.3,-119 382.1,-84.9 0.1,-113 0.1,-112.7 0.1,-112.4 "/>
<polygon fill="#F7F7F7" points="102.3,-66.1 102.1,-66.4 -6.5,28 24,63.5 102.6,-66 102.1,-66.4 102.3,-66.1 102,-66.3 23.9,62.5 
	-5.6,28.1 102.5,-66 102.3,-66.1 102,-66.3 "/>
<polygon fill="#F7F7F7" points="102.3,-66.1 102,-66.3 23.3,63.5 155.4,25.2 102.3,-66.8 102,-66.3 102.3,-66.1 102,-66 154.5,24.8 
	24.7,62.5 102.6,-66 102.3,-66.1 102,-66 "/>
<polygon fill="#F7F7F7" points="102.3,-66.1 102,-66 154.9,25.4 231.6,-10.5 101.5,-66.8 102,-66 102.3,-66.1 102.2,-65.9 
	230.2,-10.5 155.1,24.6 102.6,-66.3 102.3,-66.1 102.2,-65.9 "/>
<polygon fill="#F7F7F7" points="102.3,-66.1 102.2,-65.9 231.1,-10.1 248.4,-77.6 102.2,-66.5 102.2,-65.9 102.3,-66.1 102.3,-65.8 
	247.6,-76.9 230.7,-10.9 102.4,-66.5 102.3,-66.1 102.3,-65.8 "/>
<polygon fill="#F7F7F7" points="248.1,-77.2 247.8,-77.3 230.4,-9.7 303.9,-66.3 247.8,-77.6 247.8,-77.3 248.1,-77.2 248,-76.9 
	302.4,-66 231.4,-11.3 248.3,-77.1 248.1,-77.2 248,-76.9 "/>
<polygon fill="#F7F7F7" points="248.1,-77.2 248,-76.9 303.1,-65.8 382.2,-84.3 382.1,-84.9 248.1,-77.5 248,-76.9 248.1,-77.2 
	248.1,-76.9 378.6,-84.1 303.1,-66.5 248.2,-77.5 248.1,-77.2 248.1,-76.9 "/>
<polygon fill="#F7F7F7" points="303.1,-66.1 303,-66.4 230.2,-10.4 321.4,20.6 303.3,-66.7 303,-66.4 303.1,-66.1 302.8,-66.1 
	320.5,19.7 231.5,-10.6 303.3,-65.9 303.1,-66.1 302.8,-66.1 "/>
<polygon fill="#F7F7F7" points="303.1,-66.1 302.8,-66.1 320.8,21 382.7,-85.1 302.8,-66.4 302.8,-66.1 303.1,-66.1 303.2,-65.9 
	381.6,-84.1 321.1,19.3 303.5,-66.2 303.1,-66.1 303.2,-65.9 "/>
<polygon fill="#F7F7F7" points="382.1,-84.6 381.8,-84.8 320.4,20.3 389.2,41.3 382.4,-85.5 381.8,-84.8 382.1,-84.6 381.8,-84.6 
	388.5,40.6 321.4,20 382.4,-84.4 382.1,-84.6 381.8,-84.6 "/>
<polygon fill="#F7F7F7" points="382.1,-84.6 381.8,-84.6 388.5,41.5 456,-12.9 381.7,-85.4 381.8,-84.6 382.1,-84.6 381.8,-84.4 
	455.1,-12.9 389.1,40.4 382.4,-84.6 382.1,-84.6 381.8,-84.4 "/>
<polygon fill="#F7F7F7" points="382.1,-84.6 381.8,-84.4 456,-12.1 452.2,-57.2 382.2,-84.9 381.8,-84.4 382.1,-84.6 382,-84.3 
	451.6,-56.8 455.2,-13.7 382.3,-84.8 382.1,-84.6 382,-84.3 "/>
<polygon fill="#F7F7F7" points="382.1,-84.6 382,-84.3 451.8,-56.7 612.3,-56 612.3,-56.7 382.1,-84.9 382,-84.3 382.1,-84.6 
	382,-84.2 607.2,-56.7 452,-57.3 382.2,-84.9 382.1,-84.6 382,-84.2 "/>
<polygon fill="#F7F7F7" points="382.1,-84.6 382,-84.2 612.3,-56 697.5,-79.4 697.5,-79.9 382.1,-84.9 382,-84.2 382.1,-84.6 
	382.1,-84.2 695.3,-79.4 612.3,-56.7 382.1,-84.9 382.1,-84.6 382.1,-84.2 "/>
<polygon fill="#F7F7F7" points="382.1,-84.6 382.1,-84.2 697.5,-79.3 760.7,-102.6 760.5,-103.2 382.1,-84.9 382.1,-84.2 
	382.1,-84.6 382.1,-84.2 758.5,-102.5 697.4,-79.9 382.1,-84.9 382.1,-84.6 382.1,-84.2 "/>
<polygon fill="#F7F7F7" points="382.1,-84.6 382.1,-84.2 760.5,-102.6 865.9,-119.1 865.8,-119.7 382.1,-84.9 382.1,-84.2 
	382.1,-84.6 382.1,-84.2 858.5,-118.7 760.5,-103.2 382.1,-84.9 382.1,-84.6 382.1,-84.2 "/>
<polygon fill="#F7F7F7" points="451.9,-57 451.6,-57 455.3,-12.7 558.3,33.3 558.6,32.8 451.6,-57.7 451.6,-57 451.9,-57 
	451.7,-56.8 556.6,31.8 455.9,-13.1 452.2,-57 451.9,-57 451.7,-56.8 "/>
<polygon fill="#F7F7F7" points="451.9,-57 451.7,-56.8 558.5,33.5 612.9,-56.7 451.1,-57.3 451.7,-56.8 451.9,-57 451.9,-56.7 
	611.7,-56 558.4,32.5 452.1,-57.2 451.9,-57 451.9,-56.7 "/>
<polygon fill="#F7F7F7" points="612.3,-56.4 612.1,-56.5 558,33.1 660.6,65.3 612.4,-57.1 612.1,-56.5 612.3,-56.4 612,-56.3 
	659.5,64.4 558.9,32.8 612.6,-56.2 612.3,-56.4 612,-56.3 "/>
<polygon fill="#F7F7F7" points="612.3,-56.4 612,-56.3 660,65.4 697.3,20.1 612.5,-56.6 612,-56.3 612.3,-56.4 612.1,-56.2 
	696.4,20.2 660.2,64.3 612.6,-56.5 612.3,-56.4 612.1,-56.2 "/>
<polygon fill="#F7F7F7" points="612.3,-56.4 612.1,-56.2 697.2,20.9 697.8,-80.1 611.7,-56.5 612.1,-56.2 612.3,-56.4 612.4,-56.1 
	697.2,-79.2 696.5,19.4 612.5,-56.6 612.3,-56.4 612.4,-56.1 "/>
<polygon fill="#F7F7F7" points="697.5,-79.6 697.2,-79.6 696.5,20.7 734,-6.1 697.7,-79.8 697.2,-79.6 697.5,-79.6 697.2,-79.5 
	733.2,-6.3 697.2,19.5 697.8,-79.6 697.5,-79.6 697.2,-79.5 "/>
<polygon fill="#F7F7F7" points="697.5,-79.6 697.2,-79.5 733.6,-5.4 761,-103.5 697,-79.8 697.2,-79.5 697.5,-79.6 697.6,-79.4 
	760,-102.4 733.5,-7 697.7,-79.8 697.5,-79.6 697.6,-79.4 "/>
<polygon fill="#F7F7F7" points="760.5,-102.9 760.2,-103 733.2,-6 890,36 760.3,-103.5 760.2,-103 760.5,-102.9 760.3,-102.7 
	888.2,34.8 734,-6.4 760.8,-102.8 760.5,-102.9 760.3,-102.7 "/>
<polygon fill="#F7F7F7" points="760.5,-102.9 760.3,-102.7 889.5,36.4 866,-119.8 759.9,-103.1 760.3,-102.7 760.5,-102.9 
	760.6,-102.6 865.5,-119.1 888.6,34.5 760.8,-103.1 760.5,-102.9 760.6,-102.6 "/>
<polygon fill="#F7F7F7" points="865.8,-119.4 865.5,-119.4 888.9,36.4 940.9,-55.3 865.4,-120.2 865.5,-119.4 865.8,-119.4 
	865.6,-119.2 940.1,-55.1 889.2,34.6 866.1,-119.5 865.8,-119.4 865.6,-119.2 "/>
<polygon fill="#F7F7F7" points="940.5,-55.2 940.3,-55.4 888.8,35.3 889.2,35.7 964.9,-15.3 940.5,-55.7 940.3,-55.4 940.5,-55.2 
	940.3,-55.1 964,-15.5 890,34.5 940.8,-55.1 940.5,-55.2 940.3,-55.1 "/>
<polygon fill="#F7F7F7" points="-6,28.1 -6.3,28.1 -2.7,660 -2,660 2.8,288.3 -5.7,28 -6.3,28.1 -6,28.1 -6.3,28.1 2.2,288.3 
	-2.2,627.7 -5.7,28.1 -6,28.1 -6.3,28.1 "/>
<polygon fill="#F7F7F7" points="-6,28.1 -6.3,28.1 2.2,288.3 2.8,288.3 11.5,184.2 -5.7,28 -6.3,28.1 -6,28.1 -6.3,28.1 10.8,184.3 
	2.6,283 -5.7,28 -6,28.1 -6.3,28.1 "/>
<polygon fill="#F7F7F7" points="-6,28.1 -6.3,28.1 10.8,184.3 11.5,184.3 24.3,62.9 -6.5,27.2 -6.3,28.1 -6,28.1 -6.3,28.3 
	23.7,63.1 11.1,181.3 -5.7,28 -6,28.1 -6.3,28.3 "/>
<polygon fill="#F7F7F7" points="154.9,25 154.9,24.7 23.2,62.9 85.2,98.2 155.9,24.5 154.9,24.7 154.9,25 154.8,24.8 85.1,97.5 
	24.8,63.1 155,25.3 154.9,25 154.8,24.8 "/>
<polygon fill="#F7F7F7" points="154.9,25 154.8,24.8 84.6,98.1 229.8,122.8 154.9,24.6 154.8,24.8 154.9,25 154.8,25.2 228.3,121.9 
	85.8,97.7 155.1,25.2 154.9,25 154.8,25.2 "/>
<polygon fill="#F7F7F7" points="154.9,25 154.8,25.2 229.4,123.3 231.2,-11 154.5,24.9 154.8,25.2 154.9,25 155.1,25.3 230.6,-10 
	228.7,121.4 155.2,24.8 154.9,25 155.1,25.3 "/>
<polygon fill="#F7F7F7" points="230.9,-10.5 230.6,-10.5 228.7,123.2 321.5,20 230.6,-10.9 230.6,-10.5 230.9,-10.5 230.8,-10.2 
	320.4,20.3 229.4,121.5 231.2,-10.5 230.9,-10.5 230.8,-10.2 "/>
<polygon fill="#F7F7F7" points="320.9,20.2 320.7,19.9 228.2,122.8 330.4,110.4 321.2,19.4 320.7,19.9 320.9,20.2 320.6,20.2 
	329.7,109.9 229.8,121.9 321.2,20.4 320.9,20.2 320.6,20.2 "/>
<polygon fill="#F7F7F7" points="320.9,20.2 320.6,20.2 329.8,110.9 389.4,40.8 320.6,19.7 320.6,20.2 320.9,20.2 320.8,20.4 
	388.3,41.1 330.3,109.4 321.3,20.1 320.9,20.2 320.8,20.4 "/>
<polygon fill="#F7F7F7" points="388.8,41 388.6,40.8 329.4,110.4 424.9,112.3 388.9,40.4 388.6,40.8 388.8,41 388.5,41.1 
	423.9,111.6 330.8,109.9 389.1,41.2 388.8,41 388.5,41.1 "/>
<polygon fill="#F7F7F7" points="388.8,41 388.5,41.1 424.2,112.3 491.3,88.1 388.2,40.3 388.5,41.1 388.8,41 388.7,41.2 489.7,88 
	424.5,111.5 389.1,40.8 388.8,41 388.7,41.2 "/>
<polygon fill="#F7F7F7" points="388.8,41 388.7,41.2 491,88.6 455.7,-13.4 388.2,41.1 388.7,41.2 388.8,41 389,41.2 455.4,-12.4 
	490,87.5 389,40.7 388.8,41 389,41.2 "/>
<polygon fill="#F7F7F7" points="455.6,-12.9 455.3,-12.8 490.3,88.6 559,32.9 455,-13.5 455.3,-12.8 455.6,-12.9 455.4,-12.6 
	557.9,33.1 490.6,87.6 455.9,-13 455.6,-12.9 455.4,-12.6 "/>
<polygon fill="#F7F7F7" points="558.4,33 558.3,32.8 489.9,88.1 563,115.5 558.7,32.3 558.3,32.8 558.4,33 558.2,33 562.4,114.6 
	491.2,87.9 558.6,33.2 558.4,33 558.2,33 "/>
<polygon fill="#F7F7F7" points="558.4,33 558.2,33 562.4,115.5 660.9,64.7 558.2,32.6 558.2,33 558.4,33 558.3,33.3 659.3,64.9 
	563,114.6 558.7,33 558.4,33 558.3,33.3 "/>
<polygon fill="#F7F7F7" points="696.8,20.2 696.6,19.9 659.5,64.9 770.1,98.5 696.8,19.7 696.6,19.9 696.8,20.2 696.6,20.4 
	768.1,97.3 660.6,64.6 697.1,20.4 696.8,20.2 696.6,20.4 "/>
<polygon fill="#F7F7F7" points="696.8,20.2 696.6,20.4 768.8,98.1 769.4,97.8 733.7,-6.6 696.3,20.1 696.6,20.4 696.8,20.2 
	697,20.4 733.4,-5.6 768.3,96.6 697.1,19.9 696.8,20.2 697,20.4 "/>
<polygon fill="#F7F7F7" points="733.6,-6.1 733.3,-6.1 768.9,98.3 889.9,35.3 733.1,-6.6 733.3,-6.1 733.6,-6.1 733.5,-5.9 
	888.3,35.5 769.2,97.5 733.9,-6.3 733.6,-6.1 733.5,-5.9 "/>
<polygon fill="#F7F7F7" points="889.1,35.4 888.9,35.1 768,98.1 877.1,104.9 889.5,34.8 888.9,35.1 889.1,35.4 888.7,35.4 
	876.6,104.3 770.2,97.7 889.2,35.7 889.1,35.4 888.7,35.4 "/>
<polygon fill="#F7F7F7" points="889.1,35.4 888.7,35.4 876.5,104.7 923.9,126.6 888.9,34.3 888.7,35.4 889.1,35.4 888.7,35.5 
	922.8,125.4 877.2,104.5 889.4,35.4 889.1,35.4 888.7,35.5 "/>
<polygon fill="#F7F7F7" points="889.1,35.4 888.7,35.5 923.4,127 965,-16.1 888.7,35.3 888.7,35.5 889.1,35.4 889.2,35.7 
	963.9,-14.7 923.3,125.1 889.4,35.3 889.1,35.4 889.2,35.7 "/>
<polygon fill="#F7F7F7" points="964.4,-15.4 964.1,-15.5 923.1,126 948.7,349.6 949.4,349.6 964.7,-15.4 964.1,-15.5 964.4,-15.4 
	964.1,-15.5 948.9,345.6 923.7,126.1 964.7,-15.3 964.4,-15.4 964.1,-15.5 "/>
<polygon fill="#F7F7F7" points="964.4,-15.4 964.1,-15.5 948.7,349.6 981.8,437.8 982.4,437.7 964.7,-15.5 964.1,-15.5 964.4,-15.4 
	964.1,-15.4 981.7,435.8 949.4,349.5 964.7,-15.4 964.4,-15.4 964.1,-15.4 "/>
<polygon fill="#F7F7F7" points="24,63 23.7,63 10.7,185.1 85.6,97.8 23.7,62.5 23.7,63 24,63 23.8,63.3 84.7,97.9 11.5,183.3 
	24.3,63 24,63 23.8,63.3 "/>
<polygon fill="#F7F7F7" points="85.1,97.9 84.9,97.7 10.6,184.4 154.9,224.6 85.2,97.4 84.9,97.7 85.1,97.9 84.8,98 153.8,223.6 
	11.6,184.1 85.4,98.1 85.1,97.9 84.8,98 "/>
<polygon fill="#F7F7F7" points="85.1,97.9 84.8,98 154.3,224.6 229.6,122.1 84.7,97.5 84.8,98 85.1,97.9 85.1,98.1 228.5,122.6 
	154.4,223.4 85.4,97.8 85.1,97.9 85.1,98.1 "/>
<polygon fill="#F7F7F7" points="229,122.4 228.8,122.2 153.6,224.6 244.2,203.4 229.2,121.6 228.8,122.2 229,122.4 228.7,122.4 
	243.4,203 155.1,223.6 229.3,122.6 229,122.4 228.7,122.4 "/>
<polygon fill="#F7F7F7" points="229,122.4 228.7,122.4 243.5,203.6 335.8,175.1 228.6,121.8 228.7,122.4 229,122.4 228.9,122.6 
	334.2,174.9 244,202.8 229.4,122.3 229,122.4 228.9,122.6 "/>
<polygon fill="#F7F7F7" points="229,122.4 228.9,122.6 335.3,175.5 330.3,109.8 228.1,122.2 228.9,122.6 229,122.4 229,122.7 
	329.8,110.5 334.7,174.6 229.2,122.1 229,122.4 229,122.7 "/>
<polygon fill="#F7F7F7" points="330.1,110.2 329.8,110.2 334.8,175.6 425.3,111.7 329.7,109.8 329.8,110.2 330.1,110.2 330.1,110.5 
	423.5,112.2 335.2,174.5 330.4,110.1 330.1,110.2 330.1,110.5 "/>
<polygon fill="#F7F7F7" points="424.4,112 424.2,111.7 334.4,175 402.5,207.9 424.9,111.2 424.2,111.7 424.4,112 424.1,111.8 
	402.1,207 335.6,175 424.6,112.2 424.4,112 424.1,111.8 "/>
<polygon fill="#F7F7F7" points="424.4,112 424.1,111.8 401.9,207.9 520.6,202.2 424.2,111.3 424.1,111.8 424.4,112 424.2,112.2 
	519.1,201.7 402.7,207.2 424.7,112 424.4,112 424.2,112.2 "/>
<polygon fill="#F7F7F7" points="424.4,112 424.2,112.2 520.5,202.9 490.7,87.7 423.8,111.8 424.2,112.2 424.4,112 424.5,112.2 
	490.3,88.5 519.3,201.1 424.6,111.7 424.4,112 424.5,112.2 "/>
<polygon fill="#F7F7F7" points="490.5,88.1 490.2,88.1 519.8,202.9 563.2,114.8 490.1,87.7 490.2,88.1 490.5,88.1 490.4,88.3 
	562.3,115.1 520,201.1 490.8,87.9 490.5,88.1 490.4,88.3 "/>
<polygon fill="#F7F7F7" points="562.7,115 562.4,114.8 519.3,202.3 588.3,196.1 562.8,114.2 562.4,114.8 562.7,115 562.4,115.1 
	587.4,195.5 520.4,201.6 563,115.1 562.7,115 562.4,115.1 "/>
<polygon fill="#F7F7F7" points="562.7,115 562.4,115.1 587.6,196.2 636.8,184.4 562,114 562.4,115.1 562.7,115 562.5,115.2 
	635.6,184.1 588.1,195.5 563,114.9 562.7,115 562.5,115.2 "/>
<polygon fill="#F7F7F7" points="562.7,115 562.5,115.2 636.4,184.8 660.5,64.3 562.2,114.9 562.5,115.2 562.7,115 562.9,115.3 
	659.7,65.4 636,183.7 562.9,114.8 562.7,115 562.9,115.3 "/>
<polygon fill="#F7F7F7" points="660.1,64.8 659.8,64.7 635.8,184.8 769.8,97.8 659.9,64.5 659.8,64.7 660.1,64.8 660,65.1 
	768.3,97.9 636.7,183.6 660.4,64.9 660.1,64.8 660,65.1 "/>
<polygon fill="#F7F7F7" points="769.1,97.9 768.9,97.6 636,184 636.2,184.6 781.7,171.6 769.3,97.4 768.9,97.6 769.1,97.9 
	768.7,97.9 781,171.1 637.4,183.8 769.2,98.1 769.1,97.9 768.7,97.9 "/>
<polygon fill="#F7F7F7" points="769.1,97.9 768.7,97.9 781.1,171.8 877.7,104.4 768.7,97.6 768.7,97.9 769.1,97.9 769.1,98.2 
	875.9,104.9 781.6,170.9 769.4,97.9 769.1,97.9 769.1,98.2 "/>
<polygon fill="#F7F7F7" points="876.8,104.6 876.7,104.4 780.5,171.5 864.9,182.7 877.3,104 876.7,104.4 876.8,104.6 876.5,104.6 
	864.4,182 782.1,171.2 877,104.9 876.8,104.6 876.5,104.6 "/>
<polygon fill="#F7F7F7" points="876.8,104.6 876.5,104.6 864.2,183.2 923.9,125.9 876.6,104.2 876.5,104.6 876.8,104.6 876.7,104.9 
	922.8,126.1 865,181.5 877.2,104.6 876.8,104.6 876.7,104.9 "/>
<polygon fill="#F7F7F7" points="923.4,126.1 923.1,125.8 863.8,182.8 918.2,179 923.8,125.3 923.1,125.8 923.4,126.1 923.1,126 
	917.6,178.4 865.4,182 923.6,126.3 923.4,126.1 923.1,126 "/>
<polygon fill="#F7F7F7" points="923.4,126.1 923.1,126 917.6,178.7 948.7,349.6 949.4,349.5 923.7,126 923.1,126 923.4,126.1 
	923.1,126.1 947.8,340.4 918.2,178.6 923.7,126.1 923.4,126.1 923.1,126.1 "/>
<polygon fill="#F7F7F7" points="11.1,184.3 10.8,184.2 2.1,288.7 137.4,251.1 10.9,183.8 10.8,184.2 11.1,184.3 11,184.5 
	135.7,250.9 2.8,287.9 11.5,184.3 11.1,184.3 11,184.5 "/>
<polygon fill="#F7F7F7" points="11.1,184.3 11,184.5 136.7,251.3 154.9,223.9 11.2,184 11,184.5 11.1,184.3 11.1,184.5 153.9,224.3 
	136.5,250.6 11.3,184 11.1,184.3 11.1,184.5 "/>
<polygon fill="#F7F7F7" points="154.4,224.1 154.2,223.9 136.2,251.1 209.9,311.2 210.3,310.8 154.4,223.4 154.2,223.9 154.4,224.1 
	154.2,224.2 208.8,309.5 137.1,251 154.7,224.2 154.4,224.1 154.2,224.2 "/>
<polygon fill="#F7F7F7" points="154.4,224.1 154.2,224.2 210.2,311.6 244.2,202.8 153.9,223.8 154.2,224.2 154.4,224.1 154.5,224.3 
	243.3,203.6 210,310.3 154.7,223.9 154.4,224.1 154.5,224.3 "/>
<polygon fill="#F7F7F7" points="243.8,203.2 243.5,203.1 209.6,311.3 331.9,295.2 243.6,202.6 243.5,203.1 243.8,203.2 243.5,203.4 
	330.7,294.8 210.5,310.6 244.1,203.3 243.8,203.2 243.5,203.4 "/>
<polygon fill="#F7F7F7" points="243.8,203.2 243.5,203.4 331.6,295.8 335.3,174.6 243.2,203 243.5,203.4 243.8,203.2 243.8,203.5 
	334.7,175.4 331,294.3 244,203 243.8,203.2 243.8,203.5 "/>
<polygon fill="#F7F7F7" points="334.9,175 334.7,175 331,295.9 402.8,207.4 334.7,174.6 334.7,175 334.9,175 334.9,175.3 
	401.8,207.6 331.6,294.2 335.3,175 334.9,175 334.9,175.3 "/>
<polygon fill="#F7F7F7" points="402.3,207.5 402.1,207.3 330.3,295.7 426.6,258.4 402.4,206.9 402.1,207.3 402.3,207.5 402,207.7 
	425.8,258.1 332.3,294.4 402.6,207.7 402.3,207.5 402,207.7 "/>
<polygon fill="#F7F7F7" points="402.3,207.5 402,207.7 426.1,258.7 520,202.2 519.9,201.7 401.8,207.2 402,207.7 402.3,207.5 
	402.3,207.9 518.6,202.3 426.3,257.9 402.6,207.4 402.3,207.5 402.3,207.9 "/>
<polygon fill="#F7F7F7" points="519.9,202 519.7,201.7 425.6,258.3 473.5,282.6 520.1,202.1 519.7,201.7 519.9,202 519.6,201.8 
	473.2,281.7 426.8,258.2 520,202.2 519.9,202 519.6,201.8 "/>
<polygon fill="#F7F7F7" points="519.9,202 519.6,201.8 472.8,282.4 567,286.8 519.9,201.3 519.6,201.8 519.9,202 519.6,202.1 
	565.9,286.1 473.9,281.9 520.1,202.1 519.9,202 519.6,202.1 "/>
<polygon fill="#F7F7F7" points="519.9,202 519.6,202.1 566.5,287.3 588.3,195.5 519.4,201.7 519.6,202.1 519.9,202 519.9,202.3 
	587.4,196.2 566.3,285.6 520.1,201.8 519.9,202 519.9,202.3 "/>
<polygon fill="#F7F7F7" points="587.9,195.9 587.6,195.7 566,286.9 668.7,268.9 587.7,195.2 587.6,195.7 587.9,195.9 587.7,196.1 
	667.4,268.5 566.8,286.1 588.2,195.9 587.9,195.9 587.7,196.1 "/>
<polygon fill="#F7F7F7" points="587.9,195.9 587.7,196.1 667.9,268.9 668.3,268.6 636.4,183.9 587.3,195.7 587.7,196.1 587.9,195.9 
	588,196.1 636,184.6 667.3,267.7 588.1,195.6 587.9,195.9 588,196.1 "/>
<polygon fill="#F7F7F7" points="636.2,184.3 635.9,184.3 667.9,269 765.7,249.9 635.6,183.6 635.9,184.3 636.2,184.3 636.1,184.5 
	763.9,249.6 668.3,268.3 636.5,184.2 636.2,184.3 636.1,184.5 "/>
<polygon fill="#F7F7F7" points="636.2,184.3 636.1,184.5 765,250.2 781.7,171.1 635.1,184 636.1,184.5 636.2,184.3 636.2,184.6 
	781,171.7 764.6,249.3 636.3,184 636.2,184.3 636.2,184.6 "/>
<polygon fill="#F7F7F7" points="781.4,171.3 781.1,171.3 764.5,249.9 832.7,274.8 781.2,170.4 781.1,171.3 781.4,171.3 781.1,171.5 
	831.6,273.7 765.1,249.5 781.7,171.4 781.4,171.3 781.1,171.5 "/>
<polygon fill="#F7F7F7" points="781.4,171.3 781.1,171.5 832.2,274.9 865,182.1 780.8,171 781.1,171.5 781.4,171.3 781.3,171.7 
	864.2,182.6 832,273.5 781.6,171.3 781.4,171.3 781.3,171.7 "/>
<polygon fill="#F7F7F7" points="864.6,182.4 864.3,182.3 831.7,274.6 920.3,259.1 864.5,181.7 864.3,182.3 864.6,182.4 864.4,182.5 
	919.1,258.7 832.6,273.8 865,182.5 864.6,182.4 864.4,182.5 "/>
<polygon fill="#F7F7F7" points="864.6,182.4 864.4,182.5 920,259.9 918.2,178.3 864.1,182.1 864.4,182.5 864.6,182.4 864.6,182.7 
	917.6,179 919.4,257.9 864.9,182.2 864.6,182.4 864.6,182.7 "/>
<polygon fill="#F7F7F7" points="917.9,178.7 917.6,178.7 919.4,258.9 948.7,349.6 949.4,349.5 918.2,178.6 917.6,178.7 917.9,178.7 
	917.6,178.7 948,345 920,258.9 918.2,178.6 917.9,178.7 917.6,178.7 "/>
<polygon fill="#F7F7F7" points="2.5,288.3 2.2,288.3 -2.7,660 -2,660 21.2,491 2.8,288.2 2.2,288.3 2.5,288.3 2.2,288.3 20.6,491 
	-2,655 2.8,288.3 2.5,288.3 2.2,288.3 "/>
<polygon fill="#F7F7F7" points="2.5,288.3 2.2,288.3 20.6,491 21.2,491 34.1,376.4 2.8,288.2 2.2,288.3 2.5,288.3 2.2,288.4 
	33.5,376.5 20.9,488 2.8,288.2 2.5,288.3 2.2,288.4 "/>
<polygon fill="#F7F7F7" points="2.5,288.3 2.2,288.4 33.6,377.1 137.5,250.5 2.1,288 2.2,288.4 2.5,288.3 2.6,288.5 135.7,251.5 
	33.9,375.9 2.8,288.2 2.5,288.3 2.6,288.5 "/>
<polygon fill="#F7F7F7" points="136.6,251 136.4,250.8 33.1,376.7 121.5,388.4 137.1,249.9 136.4,250.8 136.6,251 136.3,251 
	121,387.8 34.3,376.2 136.9,251.2 136.6,251 136.3,251 "/>
<polygon fill="#F7F7F7" points="136.6,251 136.3,251 120.9,388.8 210.6,311 136.4,250.4 136.3,251 136.6,251 136.4,251.2 209.6,311 
	121.6,387.4 136.9,251 136.6,251 136.4,251.2 "/>
<polygon fill="#F7F7F7" points="210.1,311 209.9,310.8 120.7,388.2 180.9,402.6 210.7,310 209.9,310.8 210.1,311 209.8,310.9 
	180.5,401.8 121.9,388 210.3,311.2 210.1,311 209.8,310.9 "/>
<polygon fill="#F7F7F7" points="210.1,311 209.8,310.9 180.3,402.6 268.8,385.2 210,310.3 209.8,310.9 210.1,311 209.8,311.2 
	267.7,384.8 181.2,401.7 210.4,311.1 210.1,311 209.8,311.2 "/>
<polygon fill="#F7F7F7" points="210.1,311 209.8,311.2 268.2,385.5 331.9,294.6 209.5,310.8 209.8,311.2 210.1,311 210.2,311.3 
	330.7,295.4 268.2,384.6 210.3,310.8 210.1,311 210.2,311.3 "/>
<polygon fill="#F7F7F7" points="331.4,295 331.1,294.8 267.7,385.3 421.5,398.9 331.3,294.6 331.1,294.8 331.4,295 331.1,295.2 
	420,398.1 268.8,384.7 331.6,295.2 331.4,295 331.1,295.2 "/>
<polygon fill="#F7F7F7" points="331.4,295 331.1,295.2 421,399.3 426.5,257.9 330.8,294.8 331.1,295.2 331.4,295 331.5,295.3 
	425.9,258.7 420.4,397.8 331.6,294.8 331.4,295 331.5,295.3 "/>
<polygon fill="#F7F7F7" points="426.2,258.3 425.9,258.2 420.4,398.4 421,398.6 473.7,282 425.9,257.9 425.9,258.2 426.2,258.3 
	426.1,258.5 472.9,282.3 421.1,397 426.5,258.3 426.2,258.3 426.1,258.5 "/>
<polygon fill="#F7F7F7" points="473.4,282.2 473,282.1 420.2,398.8 466.3,398.2 473.7,282.2 473,282.1 473.4,282.2 473,282.1 
	465.7,397.7 421.2,398.1 473.6,282.3 473.4,282.2 473,282.1 "/>
<polygon fill="#F7F7F7" points="473.4,282.2 473,282.1 465.6,398.8 567.1,286.2 473,281.8 473,282.1 473.4,282.2 473.4,282.5 
	565.7,286.8 466.4,397.1 473.7,282.2 473.4,282.2 473.4,282.5 "/>
<polygon fill="#F7F7F7" points="566.4,286.5 566.2,286.2 465.3,398.1 587.6,403.8 566.6,285.8 566.2,286.2 566.4,286.5 566.1,286.5 
	586.9,403.1 466.7,397.7 566.7,286.7 566.4,286.5 566.1,286.5 "/>
<polygon fill="#F7F7F7" points="566.4,286.5 566.1,286.5 587,403.9 705.5,340.3 566,286 566.1,286.5 566.4,286.5 566.3,286.8 
	704.1,340.4 587.5,402.9 566.7,286.4 566.4,286.5 566.3,286.8 "/>
<polygon fill="#F7F7F7" points="566.4,286.5 566.3,286.8 705.4,341 668.3,268.3 565.2,286.4 566.3,286.8 566.4,286.5 566.5,286.8 
	667.9,269 704.1,339.8 566.5,286.2 566.4,286.5 566.5,286.8 "/>
<polygon fill="#F7F7F7" points="668.1,268.7 667.8,268.8 704.8,341 765.4,249.3 667.6,268.5 667.8,268.8 668.1,268.7 668.2,269 
	764.1,250.2 704.8,339.8 668.3,268.5 668.1,268.7 668.2,269 "/>
<polygon fill="#F7F7F7" points="764.8,249.8 764.6,249.6 704.3,340.6 783.5,347.4 765,248.9 764.6,249.6 764.8,249.8 764.5,249.8 
	782.8,346.8 705.3,340.1 765,249.9 764.8,249.8 764.5,249.8 "/>
<polygon fill="#F7F7F7" points="764.8,249.8 764.5,249.8 783,347.9 832.6,274.1 764.4,249.3 764.5,249.8 764.8,249.8 764.7,250 
	831.7,274.4 783.4,346.3 765.1,249.7 764.8,249.8 764.7,250 "/>
<polygon fill="#F7F7F7" points="832.1,274.3 831.9,274.1 782.6,347.4 847.2,354.7 832.3,273.5 831.9,274.1 832.1,274.3 831.8,274.3 
	846.5,354.1 783.7,346.9 832.4,274.4 832.1,274.3 831.8,274.3 "/>
<polygon fill="#F7F7F7" points="832.1,274.3 831.8,274.3 846.7,355.2 920.4,258.4 831.7,274 831.8,274.3 832.1,274.3 832.2,274.5 
	918.9,259.4 847,353.7 832.4,274.2 832.1,274.3 832.2,274.5 "/>
<polygon fill="#F7F7F7" points="919.7,258.9 919.4,258.7 846.2,354.7 949.5,349.8 919.8,258.2 919.4,258.7 919.7,258.9 919.4,259 
	948.6,349.2 847.5,354.1 919.9,259.1 919.7,258.9 919.4,259 "/>
<polygon fill="#F7F7F7" points="33.8,376.5 33.5,376.4 20.5,491.4 134.8,453.1 33.5,375.9 33.5,376.4 33.8,376.5 33.6,376.8 
	133.5,452.9 21.3,490.5 34.1,376.5 33.8,376.5 33.6,376.8 "/>
<polygon fill="#F7F7F7" points="33.8,376.5 33.6,376.8 134.6,453.8 121.5,387.9 32.6,376 33.6,376.8 33.8,376.5 33.7,376.8 
	121.1,388.3 133.7,452.3 34,376.2 33.8,376.5 33.7,376.8 "/>
<polygon fill="#F7F7F7" points="121.3,388.1 121,388.1 134,453.7 181.3,402 120.9,387.7 121,388.1 121.3,388.1 121.3,388.3 
	180.1,402.3 134.4,452.3 121.6,388 121.3,388.1 121.3,388.3 "/>
<polygon fill="#F7F7F7" points="180.7,402.2 180.5,401.9 133.5,453.3 231.1,454.6 180.7,401.7 180.5,401.9 180.7,402.2 180.5,402.4 
	229.5,453.9 134.9,452.7 181,402.4 180.7,402.2 180.5,402.4 "/>
<polygon fill="#F7F7F7" points="180.7,402.2 180.5,402.4 230.4,454.7 268.8,384.6 180.1,401.9 180.5,402.4 180.7,402.2 180.8,402.4 
	267.7,385.5 230.2,453.7 180.9,401.9 180.7,402.2 180.8,402.4 "/>
<polygon fill="#F7F7F7" points="268.2,385 268,384.8 229.8,454.5 290.7,465 268.3,384.2 268,384.8 268.2,385 268,385.1 289.9,464.3 
	230.8,454 268.5,385.2 268.2,385 268,385.1 "/>
<polygon fill="#F7F7F7" points="268.2,385 268,385.1 290.1,465.1 421.8,398.3 267.9,384.7 268,385.1 268.2,385 268.2,385.3 
	419.6,398.7 290.5,464.2 268.5,384.9 268.2,385 268.2,385.3 "/>
<polygon fill="#F7F7F7" points="420.7,398.5 420.6,398.2 289.5,464.7 411.2,503 421.1,398 420.6,398.2 420.7,398.5 420.4,398.4 
	410.6,502.2 291.1,464.6 420.9,398.8 420.7,398.5 420.4,398.4 "/>
<polygon fill="#F7F7F7" points="420.7,398.5 420.4,398.4 410.6,503.4 462.8,455.5 420.5,397.7 420.4,398.4 420.7,398.5 420.5,398.7 
	461.9,455.4 411.3,501.8 421,398.5 420.7,398.5 420.5,398.7 "/>
<polygon fill="#F7F7F7" points="420.7,398.5 420.5,398.7 462.6,456.3 466.3,397.6 420.1,398.2 420.5,398.7 420.7,398.5 420.7,398.8 
	465.7,398.2 462.1,454.6 421,398.3 420.7,398.5 420.7,398.8 "/>
<polygon fill="#F7F7F7" points="466,398 465.7,397.9 461.9,455.9 587.4,403.7 587.3,403.1 465.7,397.6 465.7,397.9 466,398 
	466,398.2 585.8,403.7 462.6,454.9 466.3,398 466,398 466,398.2 "/>
<polygon fill="#F7F7F7" points="587.3,403.4 587.1,403.1 462.2,455.1 462.4,455.8 596.2,434.9 587.4,403 587.1,403.1 587.3,403.4 
	586.9,403.5 595.4,434.4 464.8,454.7 587.4,403.7 587.3,403.4 586.9,403.5 "/>
<polygon fill="#F7F7F7" points="587.3,403.4 586.9,403.5 595.5,434.9 644.8,431.2 586.8,402.8 586.9,403.5 587.3,403.4 587.1,403.7 
	642.4,430.8 596,434.3 587.6,403.3 587.3,403.4 587.1,403.7 "/>
<polygon fill="#F7F7F7" points="587.3,403.4 587.1,403.7 643.7,431.3 705,340.5 704.7,340.1 586.6,403.4 587.1,403.7 587.3,403.4 
	587.4,403.7 703.8,341.3 643.5,430.6 587.4,403.1 587.3,403.4 587.4,403.7 "/>
<polygon fill="#F7F7F7" points="704.8,340.4 704.6,340.2 643,431.3 759.8,445.4 704.8,339.8 704.6,340.2 704.8,340.4 704.5,340.5 
	758.7,444.7 644.1,430.8 705,340.5 704.8,340.4 704.5,340.5 "/>
<polygon fill="#F7F7F7" points="704.8,340.4 704.5,340.5 759.4,445.9 783.5,346.8 704.3,340 704.5,340.5 704.8,340.4 704.8,340.7 
	782.8,347.4 759.1,444.2 705,340.2 704.8,340.4 704.8,340.7 "/>
<polygon fill="#F7F7F7" points="783.2,347.1 782.8,347 758.7,446 847.5,354.2 782.9,346.8 782.8,347 783.2,347.1 783.1,347.4 
	846.2,354.6 759.8,444.1 783.5,347.2 783.2,347.1 783.1,347.4 "/>
<polygon fill="#F7F7F7" points="846.8,354.5 846.6,354.2 758.8,445.1 860.1,500.1 847.1,353.7 846.6,354.2 846.8,354.5 846.5,354.5 
	859.3,499 759.8,444.9 847,354.6 846.8,354.5 846.5,354.5 "/>
<polygon fill="#F7F7F7" points="846.8,354.5 846.5,354.5 859.4,500 982.7,437.8 846.5,353.9 846.5,354.5 846.8,354.5 846.7,354.7 
	981.6,437.7 859.9,499.1 847.2,354.4 846.8,354.5 846.7,354.7 "/>
<polygon fill="#F7F7F7" points="846.8,354.5 846.7,354.7 982.7,438.4 949.3,349.2 845.8,354.2 846.7,354.7 846.8,354.5 846.8,354.7 
	948.8,349.9 981.6,437 847,354.2 846.8,354.5 846.8,354.7 "/>
<polygon fill="#F7F7F7" points="20.9,491 20.6,491 -2.7,659.9 -2.1,660.1 58,533.2 20.7,490.3 20.6,491 20.9,491 20.7,491.2 
	57.3,533.2 -1.8,658 21.2,491 20.9,491 20.7,491.2 "/>
<polygon fill="#F7F7F7" points="20.9,491 20.7,491.2 57.7,533.7 134.4,453.2 134.1,452.7 20.4,490.8 20.7,491.2 20.9,491 21,491.3 
	133.1,453.7 57.7,532.7 21.2,490.8 20.9,491 21,491.3 "/>
<polygon fill="#F7F7F7" points="134.2,453 133.9,452.8 57.2,533.3 127.7,570.5 134.6,452.1 133.9,452.8 134.2,453 133.9,453 
	127.1,569.5 58.2,533.1 134.4,453.2 134.2,453 133.9,453 "/>
<polygon fill="#F7F7F7" points="134.2,453 133.9,453 127.1,570.4 176.8,555.4 134.4,452.9 133.9,453 134.2,453 133.9,453.1 176,555 
	127.8,569.5 134.5,453 134.2,453 133.9,453.1 "/>
<polygon fill="#F7F7F7" points="134.2,453 133.9,453.1 176.3,555.9 230.8,454 133.7,452.7 133.9,453.1 134.2,453 134.2,453.3 
	229.8,454.5 176.4,554.6 134.4,452.9 134.2,453 134.2,453.3 "/>
<polygon fill="#F7F7F7" points="230.3,454.3 230,454.1 175.8,555.7 279.8,526 230.2,453.7 230,454.1 230.3,454.3 230,454.4 
	278.7,525.7 177,554.7 230.6,454.4 230.3,454.3 230,454.4 "/>
<polygon fill="#F7F7F7" points="230.3,454.3 230,454.4 279.4,526.6 290.7,464.5 229.6,453.8 230,454.4 230.3,454.3 230.2,454.5 
	289.9,464.9 279.1,525.1 230.6,454.1 230.3,454.3 230.2,454.5 "/>
<polygon fill="#F7F7F7" points="290.3,464.7 290,464.6 278.9,526.3 411,502.9 411,502.3 290.1,464.3 290,464.6 290.3,464.7 
	290.2,464.9 409.6,502.5 279.6,525.4 290.6,464.7 290.3,464.7 290.2,464.9 "/>
<polygon fill="#F7F7F7" points="410.9,502.6 410.9,502.3 278.4,525.7 379.2,594.8 411.4,502.2 410.9,502.3 410.9,502.6 410.6,502.5 
	378.9,594 280.1,526 411,502.9 410.9,502.6 410.6,502.5 "/>
<polygon fill="#F7F7F7" points="410.9,502.6 410.6,502.5 378.5,594.8 514,559 410.7,502.1 410.6,502.5 410.9,502.6 410.7,502.9 
	512.3,558.8 379.5,594 411.3,502.7 410.9,502.6 410.7,502.9 "/>
<polygon fill="#F7F7F7" points="410.9,502.6 410.7,502.9 513.8,559.7 462.4,454.9 410.4,502.7 410.7,502.9 410.9,502.6 411.1,502.8 
	462.2,456 512.4,558.2 411.1,502.3 410.9,502.6 411.1,502.8 "/>
<polygon fill="#F7F7F7" points="462.3,455.5 462,455.6 513.1,559.6 596.4,434.3 461.8,455.2 462,455.6 462.3,455.5 462.4,455.8 
	595.1,435 513.2,558.3 462.6,455.3 462.3,455.5 462.4,455.8 "/>
<polygon fill="#F7F7F7" points="595.8,434.7 595.5,434.5 512.6,559.1 547.7,565.4 596.1,434.7 595.5,434.5 595.8,434.7 595.5,434.6 
	547.3,564.7 513.7,558.7 596,434.7 595.8,434.7 595.5,434.6 "/>
<polygon fill="#F7F7F7" points="595.8,434.7 595.5,434.6 547,565.3 646.4,581.4 595.8,433.8 595.5,434.6 595.8,434.7 595.5,434.7 
	645.5,580.6 547.9,564.8 596.1,434.7 595.8,434.7 595.5,434.7 "/>
<polygon fill="#F7F7F7" points="595.8,434.7 595.5,434.7 645.7,581.1 646.3,581 643.9,430.6 595.3,434.4 595.5,434.7 595.8,434.7 
	595.8,434.9 643.3,431.3 645.6,579 596.1,434.6 595.8,434.7 595.8,434.9 "/>
<polygon fill="#F7F7F7" points="643.6,431 643.3,431 645.7,581.8 759.9,444.8 643.3,430.6 643.3,431 643.6,431 643.5,431.3 
	758.6,445.2 646.3,580.1 643.9,431 643.6,431 643.5,431.3 "/>
<polygon fill="#F7F7F7" points="759.3,445 759,444.8 645.2,581.4 770.6,556.1 759.5,444.3 759,444.8 759.3,445 759,445 769.9,555.6 
	646.8,580.5 759.5,445.2 759.3,445 759,445 "/>
<polygon fill="#F7F7F7" points="759.3,445 759,445 770.1,556.4 860.3,499.5 758.9,444.6 759,445 759.3,445 759.1,445.3 859.1,499.6 
	770.6,555.3 759.6,445 759.3,445 759.1,445.3 "/>
<polygon fill="#F7F7F7" points="859.7,499.6 859.5,499.2 769.4,556.1 884,567.2 859.8,499.1 859.5,499.2 859.7,499.6 859.4,499.6 
	883.1,566.5 771.3,555.6 859.9,499.8 859.7,499.6 859.4,499.6 "/>
<polygon fill="#F7F7F7" points="859.7,499.6 859.4,499.6 883.5,567.6 982.4,438 982,437.4 859.3,499.4 859.4,499.6 859.7,499.6 
	859.8,499.8 981.1,438.5 883.6,566.2 860,499.4 859.7,499.6 859.8,499.8 "/>
<polygon fill="#F7F7F7" points="982.1,437.8 981.9,437.6 883.1,567 941.9,594.3 982.4,437.8 981.9,437.6 982.1,437.8 981.8,437.6 
	941.6,593.4 884.1,566.8 982.4,438 982.1,437.8 981.8,437.6 "/>
<polygon fill="#F7F7F7" points="982.1,437.8 981.8,437.6 941.5,593.8 942.6,654.5 943.3,654.5 982.4,437.8 981.8,437.6 982.1,437.8 
	981.8,437.7 943.2,651.4 942,593.9 982.4,437.8 982.1,437.8 981.8,437.7 "/>
<polygon fill="#F7F7F7" points="57.7,533.2 57.3,533.1 -3.2,660.9 128,569.9 57.5,532.8 57.3,533.1 57.7,533.2 57.5,533.5 
	126.8,570 -1.7,659 57.9,533.4 57.7,533.2 57.5,533.5 "/>
<polygon fill="#F7F7F7" points="127.5,570 127.3,569.7 -3.2,660.1 117.3,683.6 127.8,569.3 127.3,569.7 127.5,570 127.1,569.9 
	116.7,682.9 -1.7,659.8 127.6,570.2 127.5,570 127.1,569.9 "/>
<polygon fill="#F7F7F7" points="127.5,570 127.1,569.9 116.7,683.8 208.2,628.1 127.2,569.3 127.1,569.9 127.5,570 127.3,570.2 
	207.1,628 117.4,682.6 127.8,570 127.5,570 127.3,570.2 "/>
<polygon fill="#F7F7F7" points="127.5,570 127.3,570.2 208.3,629 176.6,554.8 126.8,569.9 127.3,570.2 127.5,570 127.5,570.2 
	176.2,555.6 206.9,627.2 127.6,569.7 127.5,570 127.5,570.2 "/>
<polygon fill="#F7F7F7" points="176.4,555.2 176.1,555.4 207.6,628.7 280,525.3 176,555 176.1,555.4 176.4,555.2 176.5,555.5 
	278.5,526.4 207.7,627.5 176.7,555.1 176.4,555.2 176.5,555.5 "/>
<polygon fill="#F7F7F7" points="279.3,525.9 279,525.7 207.1,628.3 274.1,632.7 279.6,524.7 279,525.7 279.3,525.9 278.9,525.8 
	273.5,632 208.2,627.9 279.5,526 279.3,525.9 278.9,525.8 "/>
<polygon fill="#F7F7F7" points="279.3,525.9 278.9,525.8 273.4,632.8 379.7,594.6 278.9,525.2 278.9,525.8 279.3,525.9 279.1,526.1 
	378.4,594.4 274.1,631.9 279.6,525.9 279.3,525.9 279.1,526.1 "/>
<polygon fill="#F7F7F7" points="379,594.5 378.9,594.2 273.7,632.1 273.7,632.7 424.5,656.7 379.2,594.1 378.9,594.2 379,594.5 
	378.8,594.6 423.1,655.9 274.9,632.3 379.2,594.7 379,594.5 378.8,594.6 "/>
<polygon fill="#F7F7F7" points="379,594.5 378.8,594.6 423.7,656.6 461.3,644.1 379.2,594.2 378.8,594.6 379,594.5 378.9,594.7 
	459.8,644 423.9,655.9 379.3,594.3 379,594.5 378.9,594.7 "/>
<polygon fill="#F7F7F7" points="379,594.5 378.9,594.7 460.6,644.5 513.8,558.4 378.2,594.4 378.9,594.7 379,594.5 379.1,594.7 
	512.5,559.4 460.4,643.6 379.2,594.2 379,594.5 379.1,594.7 "/>
<polygon fill="#F7F7F7" points="513.2,558.9 512.9,558.7 460.3,643.9 460.7,644.3 548.2,564.8 513,558.6 512.9,558.7 513.2,558.9 
	513.1,559.2 546.8,565.2 461.9,642.3 513.4,559.1 513.2,558.9 513.1,559.2 "/>
<polygon fill="#F7F7F7" points="547.5,565 547.3,564.8 459.7,644.3 612.9,648 547.5,564.6 547.3,564.8 547.5,565 547.2,565.2 
	611.6,647.4 461.3,643.8 547.7,565.2 547.5,565 547.2,565.2 "/>
<polygon fill="#F7F7F7" points="547.5,565 547.2,565.2 612.4,648.2 646.4,580.8 546.7,564.7 547.2,565.2 547.5,565 547.4,565.4 
	645.5,581.2 612.3,647.1 547.7,564.8 547.5,565 547.4,565.4 "/>
<polygon fill="#F7F7F7" points="646,581 645.7,580.8 611.7,648.1 708,623.4 645.9,580.5 645.7,580.8 646,581 645.8,581.3 
	706.5,623.1 612.9,647.3 646.3,581.2 646,581 645.8,581.3 "/>
<polygon fill="#F7F7F7" points="646,581 645.8,581.3 707.3,623.6 771.2,555.4 645.2,580.8 645.8,581.3 646,581 646.1,581.3 
	769.4,556.4 707.2,622.8 646.2,580.7 646,581 646.1,581.3 "/>
<polygon fill="#F7F7F7" points="770.3,555.9 770.1,555.6 706.8,623.3 790.3,671 770.5,555.2 770.1,555.6 770.3,555.9 770,555.9 
	789.5,669.8 707.8,623.1 770.6,556.1 770.3,555.9 770,555.9 "/>
<polygon fill="#F7F7F7" points="770.3,555.9 770,555.9 789.6,670.9 840.6,636.2 769.8,554.8 770,555.9 770.3,555.9 770.1,556.1 
	839.6,636 790.1,669.8 770.6,555.8 770.3,555.9 770.1,556.1 "/>
<polygon fill="#F7F7F7" points="770.3,555.9 770.1,556.1 840.2,636.6 884.1,566.6 769.6,555.4 770.1,556.1 770.3,555.9 770.3,556.2 
	883,567.2 840,635.5 770.6,555.6 770.3,555.9 770.3,556.2 "/>
<polygon fill="#F7F7F7" points="883.6,566.9 883.3,566.7 839.3,636.7 942.5,593.9 883.5,566.5 883.3,566.7 883.6,566.9 883.5,567.2 
	941,593.8 840.9,635.4 883.8,567.1 883.6,566.9 883.5,567.2 "/>
<polygon fill="#F7F7F7" points="941.7,593.9 941.7,593.6 839,636.2 943.3,654.8 942,593.4 941.7,593.6 941.7,593.9 941.5,593.9 
	942.6,654.1 841.2,636 941.8,594.1 941.7,593.9 941.5,593.9 "/>
<polygon fill="#F7F7F7" points="117,683.2 117,683.6 789.9,670.7 789.9,670.1 423.8,656 117,682.9 117,683.6 117,683.2 117,683.6 
	423.8,656.6 779.2,670.3 117,682.9 117,683.2 117,683.6 "/>
<polygon fill="#F7F7F7" points="117,683.2 117,683.6 423.8,656.6 423.8,656 273.7,632 116.9,682.9 117,683.6 117,683.2 117.1,683.5 
	273.8,632.7 421.3,656.2 117,682.9 117,683.2 117.1,683.5 "/>
<polygon fill="#F7F7F7" points="117,683.2 117.1,683.5 273.8,632.7 273.8,632.1 207.6,627.8 116.8,682.9 117.1,683.5 117,683.2 
	117.2,683.5 207.7,628.4 272.1,632.6 116.9,682.9 117,683.2 117.2,683.5 "/>
<polygon fill="#F7F7F7" points="423.8,656.3 423.8,656.6 789.9,670.7 790,670.1 612.3,647.5 423.8,656 423.8,656.6 423.8,656.3 
	423.8,656.6 612.3,648 783,669.8 423.8,656 423.8,656.3 423.8,656.6 "/>
<polygon fill="#F7F7F7" points="423.8,656.3 423.8,656.6 612.3,648 612.3,647.5 460.5,643.8 423.7,656 423.8,656.6 423.8,656.3 
	423.8,656.6 460.6,644.4 603.5,647.8 423.8,656 423.8,656.3 423.8,656.6 "/>
<polygon fill="#F7F7F7" points="612.3,647.8 612.3,648 789.8,670.7 790,670.1 707.3,622.9 612.3,647.5 612.3,648 612.3,647.8 
	612.4,648 707.2,623.6 788.3,669.8 612.4,647.5 612.3,647.8 612.4,648 "/>
<polygon fill="#F7F7F7" points="789.9,670.4 789.9,670.7 943,654.7 943,654.2 840,635.7 789.7,670.1 789.9,670.7 789.9,670.4 
	790.1,670.7 840.2,636.4 940.8,654.4 789.8,670.1 789.9,670.4 790.1,670.7 "/>
</svg>
