<?xml version="1.0" encoding="utf-8"?>
<!-- Generator: Adobe Illustrator 18.1.1, SVG Export Plug-In . SVG Version: 6.00 Build 0)  -->
<!DOCTYPE svg PUBLIC "-//W3C//DTD SVG 1.1//EN" "http://www.w3.org/Graphics/SVG/1.1/DTD/svg11.dtd">
<svg version="1.1" id="Layer_1" xmlns="http://www.w3.org/2000/svg" xmlns:xlink="http://www.w3.org/1999/xlink" x="0px" y="0px"
	 viewBox="0 0 50 50" enable-background="new 0 0 50 50" xml:space="preserve">
<g>
	<defs>
		<rect id="SVGID_1_" width="50" height="50"/>
	</defs>
	<clipPath id="SVGID_2_">
		<use xlink:href="#SVGID_1_"  overflow="visible"/>
	</clipPath>
	<rect x="-25" clip-path="url(#SVGID_2_)" fill="#FFFFFF" width="100" height="50"/>
	<polyline clip-path="url(#SVGID_2_)" fill="#CF142B" points="75,20 30,20 30,0 20,0 20,20 -25,20 -25,30 20,30 20,50 30,50 30,30 
		75,30 	"/>
	<path clip-path="url(#SVGID_2_)" fill="#00247D" d="M-25,33.3v11.1l22.2-11.1 M75,33.3v11.1L52.8,33.3H75z M-25,16.7V5.6l22.2,11.1
		H-25z M75,16.7V5.6L52.8,16.7H75z M16.7,50V34.8L-13.8,50H16.7z M33.3,50V34.8L63.8,50H33.3z M16.7,0v15.2L-13.8,0H16.7z M33.3,0
		v15.2L63.8,0H33.3z"/>
</g>
</svg>
