<?xml version="1.0" encoding="utf-8"?>
<!-- Generator: Adobe Illustrator 18.1.1, SVG Export Plug-In . SVG Version: 6.00 Build 0)  -->
<!DOCTYPE svg PUBLIC "-//W3C//DTD SVG 1.1//EN" "http://www.w3.org/Graphics/SVG/1.1/DTD/svg11.dtd">
<svg version="1.1" id="Layer_1" xmlns="http://www.w3.org/2000/svg" xmlns:xlink="http://www.w3.org/1999/xlink" x="0px" y="0px"
	 viewBox="0 0 263.1 129.5" enable-background="new 0 0 263.1 129.5" xml:space="preserve">
<g>
	<path fill="#FFFFFF" d="M50.2,105.3c-1-0.6-2.2-1.1-3.8-1.3c-1.6-0.2-3.5-0.3-5.8-0.3c-1.7,0-3.3,0.1-4.7,0.3
		c-1,0.2-1.8,0.3-2.5,0.6v-0.5h-1.7h-0.4h-1.8H29h-1.7v0.5c-0.7-0.2-1.5-0.4-2.5-0.6c-1.4-0.2-3-0.3-4.7-0.3c-2.3,0-4.2,0.1-5.8,0.3
		c-1.6,0.2-2.8,0.7-3.8,1.3c-1,0.6-1.7,1.5-2.1,2.6c-0.4,1.1-0.6,2.5-0.6,4.3c0,1.8,0.2,3.2,0.6,4.3c0.4,1.1,1.1,2,2.1,2.6
		c1,0.6,2.2,1.1,3.8,1.3c1.6,0.2,3.5,0.3,5.8,0.3c0.9,0,1.8,0,2.7-0.1c0.9-0.1,1.6-0.2,2.3-0.3c0.8-0.1,1.5-0.3,2.2-0.5v5.5h0
		l5.9,2.3l0-2.3v-5.5c0.7,0.2,1.4,0.4,2.2,0.5c0.7,0.1,1.5,0.2,2.3,0.3c0.9,0.1,1.8,0.1,2.7,0.1c2.3,0,4.2-0.1,5.8-0.3
		c1.6-0.2,2.8-0.7,3.8-1.3c1-0.6,1.7-1.5,2.1-2.6c0.4-1.1,0.6-2.5,0.6-4.3c0-1.8-0.2-3.2-0.6-4.3C51.9,106.8,51.2,106,50.2,105.3z
		 M27.4,115.3c-0.6,0-1.2,0.1-1.9,0.1c-0.7,0-1.3,0.1-2,0.1c-0.7,0-1.3,0.1-1.9,0.1c-0.6,0-1.1,0-1.5,0c-1.2,0-2.2,0-3-0.1
		c-0.8-0.1-1.4-0.2-1.9-0.5c-0.5-0.2-0.8-0.6-0.9-1c-0.2-0.4-0.3-1-0.3-1.8c0-0.7,0.1-1.3,0.3-1.8c0.2-0.4,0.5-0.8,0.9-1
		c0.5-0.2,1.1-0.4,1.9-0.5c0.8-0.1,1.8-0.1,3-0.1c0.4,0,0.9,0,1.5,0c0.6,0,1.2,0,1.9,0.1c0.7,0,1.3,0.1,2,0.1c0.7,0,1.3,0.1,1.9,0.1
		V115.3z M46.4,114c-0.2,0.4-0.5,0.8-0.9,1c-0.5,0.2-1.1,0.4-1.9,0.5c-0.8,0.1-1.8,0.1-3,0.1c-0.4,0-0.9,0-1.5,0
		c-0.6,0-1.2,0-1.9-0.1c-0.7,0-1.3-0.1-2-0.1c-0.7,0-1.3-0.1-1.9-0.1v-6.1c0.6,0,1.2-0.1,1.9-0.1c0.7,0,1.4-0.1,2-0.1
		c0.7,0,1.3-0.1,1.9-0.1c0.6,0,1.1,0,1.5,0c1.2,0,2.2,0,3,0.1c0.8,0.1,1.4,0.2,1.9,0.5c0.5,0.2,0.8,0.6,0.9,1c0.2,0.4,0.3,1,0.3,1.8
		C46.6,113,46.6,113.6,46.4,114z"/>
	<path fill="#FFFFFF" d="M79.3,105.3c-1-0.6-2.2-1.1-3.8-1.3c-1.6-0.2-3.5-0.3-5.8-0.3c-1.7,0-3.3,0.1-4.7,0.3
		c-1.4,0.2-2.5,0.5-3.4,0.8l-0.8-0.8h-0.4h-3.9v15.1v8.5l6-2.3v-5.5c0.7,0.2,1.4,0.4,2.2,0.5c0.7,0.1,1.5,0.2,2.3,0.3
		c0.9,0.1,1.8,0.1,2.7,0.1c2.3,0,4.2-0.1,5.8-0.3c1.6-0.2,2.8-0.7,3.8-1.3c1-0.6,1.7-1.5,2.1-2.6c0.4-1.1,0.6-2.5,0.6-4.3
		c0-1.8-0.2-3.2-0.6-4.3C80.9,106.8,80.2,106,79.3,105.3z M75.4,114c-0.2,0.4-0.5,0.8-0.9,1c-0.5,0.2-1.1,0.4-1.9,0.5
		c-0.8,0.1-1.8,0.1-3,0.1c-0.4,0-0.9,0-1.5,0c-0.6,0-1.2,0-1.9-0.1c-0.7,0-1.3-0.1-2-0.1c-0.7,0-1.3-0.1-1.9-0.1v-6.1
		c0.6,0,1.2-0.1,1.9-0.1c0.7,0,1.3-0.1,2-0.1c0.7,0,1.3-0.1,1.9-0.1c0.6,0,1.1,0,1.5,0c1.2,0,2.2,0,3,0.1c0.8,0.1,1.4,0.2,1.9,0.5
		c0.5,0.2,0.8,0.6,0.9,1c0.2,0.4,0.3,1,0.3,1.8S75.6,113.6,75.4,114z"/>
	<path fill="#FFFFFF" d="M105.1,115.3c-0.6,0-1.2,0.1-1.9,0.1c-0.7,0-1.3,0.1-2,0.1c-0.6,0-1.2,0.1-1.8,0.1c-0.6,0-1.1,0-1.5,0
		c-1.2,0-2.2,0-3-0.1c-0.8-0.1-1.4-0.2-1.9-0.5c-0.5-0.2-0.8-0.6-0.9-1c-0.2-0.4-0.3-1-0.3-1.8v-8.1h-6.3v8.1c0,1.8,0.2,3.2,0.6,4.3
		c0.4,1.1,1.1,2,2.1,2.6c1,0.6,2.3,1.1,3.8,1.3c1.6,0.2,3.5,0.3,5.8,0.3c1.7,0,3.3-0.1,4.7-0.3c1.4-0.2,2.6-0.5,3.4-0.8l0.7,0.8h4.3
		v-16.3h-6V115.3z"/>
	<path fill="#FFFFFF" d="M132.3,115.5c-0.6,0-1.1,0-1.7,0.1c-0.5,0-1.1,0.1-1.5,0.1c-0.5,0-0.9,0-1.2,0c-1.2,0-2.2,0-3-0.1
		c-0.8-0.1-1.4-0.2-1.9-0.5c-0.5-0.2-0.8-0.6-0.9-1c-0.2-0.4-0.3-1-0.3-1.8s0.1-1.3,0.3-1.8c0.2-0.4,0.5-0.8,0.9-1
		c0.5-0.2,1.1-0.4,1.9-0.5c0.8-0.1,1.8-0.1,3-0.1c0.7,0,1.5,0,2.5,0.1c1,0,2,0.1,3.1,0.2c1,0.1,2,0.1,2.8,0.2
		c0.8,0.1,1.4,0.1,1.6,0.1v-4.8c-0.2,0-0.7-0.1-1.4-0.2c-0.7-0.1-1.5-0.2-2.4-0.3c-0.9-0.1-2-0.2-3-0.3c-1.1-0.1-2.1-0.1-3.2-0.1
		c-2.3,0-4.2,0.1-5.8,0.3c-1.6,0.2-2.9,0.7-3.8,1.3c-1,0.6-1.7,1.5-2.1,2.6c-0.4,1.1-0.6,2.5-0.6,4.3c0,1.8,0.2,3.2,0.6,4.3
		c0.4,1.1,1.1,2,2.1,2.6c1,0.6,2.2,1.1,3.8,1.3c1.6,0.2,3.5,0.3,5.8,0.3c1.1,0,2.3,0,3.5-0.1c1.2-0.1,2.3-0.2,3.3-0.3
		c1.2-0.1,2.3-0.3,3.4-0.4v-4.8c-1.4,0.1-2.7,0.2-4,0.3C133.5,115.4,132.9,115.4,132.3,115.5z"/>
	<path fill="#FFFFFF" d="M186.7,104c-1.5-0.2-3-0.3-4.5-0.3c-2.3,0-4.2,0.1-5.8,0.3c-1.6,0.2-2.9,0.7-3.8,1.3
		c-1,0.6-1.7,1.5-2.1,2.6c-0.4,1.1-0.6,2.5-0.6,4.3c0,1.8,0.2,3.2,0.6,4.3c0.4,1.1,1.1,2,2.1,2.6c1,0.6,2.3,1.1,3.8,1.3
		c1.6,0.2,3.5,0.3,5.8,0.3c1.7,0,3.3-0.1,4.7-0.4c1.4-0.2,2.6-0.5,3.4-0.8l0.7,0.8h4.3v-15.1c-1.5-0.3-3-0.5-4.4-0.8
		C189.7,104.3,188.3,104.1,186.7,104z M189.5,115.3c-0.6,0-1.2,0.1-1.9,0.1c-0.7,0-1.3,0.1-2,0.1c-0.7,0-1.3,0.1-1.9,0.1
		c-0.6,0-1.1,0-1.5,0c-1.2,0-2.2,0-3-0.1c-0.8-0.1-1.4-0.2-1.9-0.5c-0.5-0.2-0.8-0.6-0.9-1c-0.2-0.4-0.3-1-0.3-1.8s0.1-1.3,0.3-1.8
		c0.2-0.4,0.5-0.8,0.9-1c0.5-0.2,1.1-0.4,1.9-0.5c0.8-0.1,1.8-0.1,3-0.1c0.4,0,0.9,0,1.5,0c0.6,0,1.2,0,1.9,0.1c0.6,0,1.3,0.1,2,0.1
		c0.7,0,1.3,0.1,1.9,0.1V115.3z"/>
	<path fill="#FFFFFF" d="M220.1,115.3c-0.6,0-1.2,0.1-1.9,0.1c-0.7,0-1.3,0.1-2,0.1c-0.6,0-1.2,0.1-1.8,0.1c-0.6,0-1.1,0-1.5,0
		c-1.2,0-2.2,0-3-0.1c-0.8-0.1-1.4-0.2-1.9-0.5c-0.5-0.2-0.8-0.6-0.9-1c-0.2-0.4-0.3-1-0.3-1.8v-8.1h-6.3v8.1c0,1.8,0.2,3.2,0.6,4.3
		c0.4,1.1,1.1,2,2.1,2.6c1,0.6,2.3,1.1,3.8,1.3c1.6,0.2,3.5,0.3,5.8,0.3c1.7,0,3.3-0.1,4.7-0.3c1.4-0.2,2.6-0.5,3.4-0.8l0.7,0.8h4.3
		v-16.3h-5.9V115.3z"/>
	<polygon fill="#FFFFFF" points="141,108.6 150.8,108.6 150.8,120.4 156.7,120.4 156.7,108.7 156.6,108.6 166.5,108.6 166.5,104.1 
		141,104.1 	"/>
	<path fill="#FFFFFF" d="M237.7,104c-1.2,0.2-2.2,0.7-3.1,1.3c-0.8,0.6-1.4,1.5-1.9,2.6c-0.4,1.1-0.6,2.5-0.6,4.3v3.8
		c-0.5,0.1-1.1,0.3-1.8,0.4c0,0-0.1,0-0.1,0v4.7c0.5,0,1.1-0.1,1.6-0.1c1.1-0.1,2.2-0.2,3.3-0.4c1.1-0.1,2.1-0.3,3-0.5v-0.3h0v-7.7
		c0-0.7,0.1-1.2,0.2-1.6c0.1-0.4,0.4-0.8,0.7-1c0.3-0.3,0.7-0.4,1.2-0.5c1.2-0.4,8.9,0.1,9.5,0.2v11.2h5.9v-15.6
		C254.8,104.7,242.4,103.1,237.7,104z"/>
	<path fill="#FFFFFF" d="M213,100.6c-1.9,0-3.3,1.4-3.3,3.5h6.6C216.3,102,215,100.6,213,100.6z"/>
</g>
<g>
	<g>
		<g>
			<g>
				<path fill-rule="evenodd" clip-rule="evenodd" fill="#FFFFFF" d="M151,60.9c0,0-15.6-21.3-18.3-33.5C130,15.2,132.5,4.3,138.2,3
					c5.7-1.3,12.6,7.6,15.3,19.8C156.2,35,151,60.9,151,60.9z"/>
			</g>
		</g>
		<path fill-rule="evenodd" clip-rule="evenodd" fill="#FFFFFF" d="M81.1,53.8c0,0,2.3,17,0,24.8c-2.3,7.8-7.1,13.2-10.7,12.1
			c-3.7-1.1-4.8-8.2-2.5-16C70.1,66.9,81.1,53.8,81.1,53.8z"/>
		<path fill-rule="evenodd" clip-rule="evenodd" fill="#FFFFFF" d="M69.2,62.1c0,0-2.2,14.7-5.9,20.6c-3.7,5.9-9,9.3-11.8,7.6
			c-2.8-1.8-2-8,1.7-13.9C56.9,70.4,69.2,62.1,69.2,62.1z"/>
		<path fill-rule="evenodd" clip-rule="evenodd" fill="#FFFFFF" d="M58.1,66.3c0,0-6.8,10.9-11.9,14.3c-5,3.4-10.4,4.2-12,1.9
			c-1.6-2.4,1.2-7.1,6.2-10.5C45.5,68.6,58.1,66.3,58.1,66.3z"/>
		<path fill-rule="evenodd" clip-rule="evenodd" fill="#FFFFFF" d="M42.4,68.1c0,0-8.7,7-13.8,8.3c-5.1,1.4-9.7,0.5-10.4-1.9
			c-0.6-2.4,3-5.4,8-6.8C31.4,66.4,42.4,68.1,42.4,68.1z"/>
		<path fill-rule="evenodd" clip-rule="evenodd" fill="#FFFFFF" d="M28.3,64.6c0,0-8.2,4.2-12.5,4.4c-4.3,0.2-7.9-1.2-8-3.2
			c-0.1-2,3.3-3.9,7.6-4.1C19.7,61.4,28.3,64.6,28.3,64.6z"/>
		<path fill-rule="evenodd" clip-rule="evenodd" fill="#FFFFFF" d="M18.4,59.4c0,0-8.2,1.5-12,0.5c-3.8-0.9-6.6-3.2-6.1-5
			c0.4-1.8,3.9-2.5,7.7-1.6C11.8,54.3,18.4,59.4,18.4,59.4z"/>
		<path fill-rule="evenodd" clip-rule="evenodd" fill="#FFFFFF" d="M94.4,49.2c0,0,5.8,18.9,4.7,28.2c-1.1,9.3-5.5,16.4-9.9,15.9
			c-4.4-0.5-7.1-8.5-6-17.8C84.4,66.3,94.4,49.2,94.4,49.2z"/>
		<path fill-rule="evenodd" clip-rule="evenodd" fill="#FFFFFF" d="M104.3,36.6c0,0,13.1,18.7,15.3,29.3c2.1,10.6-0.2,20-5.2,21
			c-5,1-10.8-6.8-12.9-17.4C99.4,58.9,104.3,36.6,104.3,36.6z"/>
		<path fill-rule="evenodd" clip-rule="evenodd" fill="#FFFFFF" d="M112.7,22.2c0,0,20.9,16.1,26.9,27.1c6,11,6.6,22.1,1.4,24.9
			c-5.2,2.8-14.2-3.8-20.2-14.7C114.9,48.5,112.7,22.2,112.7,22.2z"/>
	</g>
	<g>
		<path fill-rule="evenodd" clip-rule="evenodd" fill="#FFFFFF" d="M187.9,49.5c0,0,4.5-16.5,9.7-22.8c5.1-6.3,11.7-9.4,14.6-7
			c3,2.4,1.2,9.5-3.9,15.7C203.2,41.7,187.9,49.5,187.9,49.5z"/>
		<path fill-rule="evenodd" clip-rule="evenodd" fill="#FFFFFF" d="M202.1,46.5c0,0,7.7-12.7,13.5-16.7c5.8-4,12-5.1,13.8-2.3
			c1.9,2.7-1.2,8.2-7,12.2C216.7,43.7,202.1,46.5,202.1,46.5z"/>
		<path fill-rule="evenodd" clip-rule="evenodd" fill="#FFFFFF" d="M214,46.9c0,0,10.5-7.4,16.5-8.5c6-1.2,11.2,0.1,11.8,3
			c0.6,2.8-3.8,6-9.8,7.2C226.5,49.7,214,46.9,214,46.9z"/>
		<path fill-rule="evenodd" clip-rule="evenodd" fill="#FFFFFF" d="M229.2,51.3c0,0,10.7-3,15.9-2.3c5.2,0.7,9.1,3.3,8.8,5.8
			c-0.3,2.5-4.8,3.9-10.1,3.1C238.6,57.2,229.2,51.3,229.2,51.3z"/>
		<path fill-rule="evenodd" clip-rule="evenodd" fill="#FFFFFF" d="M240.8,60.1c0,0,9.2-0.7,13.2,0.8c4.1,1.5,6.8,4.2,6.1,6.1
			c-0.7,1.9-4.6,2.3-8.6,0.8C247.5,66.4,240.8,60.1,240.8,60.1z"/>
		<path fill-rule="evenodd" clip-rule="evenodd" fill="#FFFFFF" d="M247.8,68.8c0,0,8.1,1.9,11.3,4.2c3.2,2.4,4.8,5.5,3.7,6.9
			c-1.1,1.5-4.6,0.8-7.7-1.6C251.9,76,247.8,68.8,247.8,68.8z"/>
		<path fill-rule="evenodd" clip-rule="evenodd" fill="#FFFFFF" d="M173.9,48.5c0,0,2-19.7,6.6-27.8c4.6-8.1,11.5-13,15.3-10.8
			c3.8,2.2,3.2,10.5-1.4,18.7C189.8,36.7,173.9,48.5,173.9,48.5z"/>
		<path fill-rule="evenodd" clip-rule="evenodd" fill="#FFFFFF" d="M159.8,56.3c0,0-4.8-22.4-2.6-32.9c2.2-10.6,8-18.3,13-17.3
			c5,1,7.3,10.4,5.1,21C173.1,37.6,159.8,56.3,159.8,56.3z"/>
	</g>
</g>
</svg>
