<?xml version="1.0" encoding="utf-8"?>
<!-- Generator: Adobe Illustrator 18.1.1, SVG Export Plug-In . SVG Version: 6.00 Build 0)  -->
<!DOCTYPE svg PUBLIC "-//W3C//DTD SVG 1.1//EN" "http://www.w3.org/Graphics/SVG/1.1/DTD/svg11.dtd">
<svg version="1.1" id="Layer_1" xmlns="http://www.w3.org/2000/svg" xmlns:xlink="http://www.w3.org/1999/xlink" x="0px" y="0px"
	 viewBox="0 0 960 560" enable-background="new 0 0 960 560" xml:space="preserve">
<g>
	<path fill="#2A9FFF" d="M183.2,428c-3.6-2.2-8-4-13.9-4.7c-5.8-0.7-12.8-1.1-21.2-1.1c-6.2,0-12,0.4-17.1,1.1
		c-3.6,0.7-6.6,1.1-9.1,2.2v-1.8h-6.2h-1.5h-6.6h-1.8h-6.2v1.8c-2.6-0.7-5.5-1.5-9.1-2.2c-5.1-0.7-10.9-1.1-17.1-1.1
		c-8.4,0-15.3,0.4-21.2,1.1c-5.8,0.7-10.2,2.6-13.9,4.7c-3.6,2.2-6.2,5.5-7.7,9.5c-1.5,4-2.2,9.1-2.2,15.7c0,6.6,0.7,11.7,2.2,15.7
		c1.5,4,4,7.3,7.7,9.5c3.6,2.2,8,4,13.9,4.7c5.8,0.7,12.8,1.1,21.2,1.1c3.3,0,6.6,0,9.9-0.4c3.3-0.4,5.8-0.7,8.4-1.1
		c2.9-0.4,5.5-1.1,8-1.8v20.1l0,0l21.5,8.4v-8.4v-20.1c2.6,0.7,5.1,1.5,8,1.8c2.6,0.4,5.5,0.7,8.4,1.1c3.3,0.4,6.6,0.4,9.9,0.4
		c8.4,0,15.3-0.4,21.2-1.1c5.8-0.7,10.2-2.6,13.9-4.7c3.6-2.2,6.2-5.5,7.7-9.5c1.5-4,2.2-9.1,2.2-15.7c0-6.6-0.7-11.7-2.2-15.7
		C189.4,433.4,186.8,430.5,183.2,428z M100,464.4c-2.2,0-4.4,0.4-6.9,0.4c-2.6,0-4.7,0.4-7.3,0.4c-2.6,0-4.7,0.4-6.9,0.4s-4,0-5.5,0
		c-4.4,0-8,0-10.9-0.4c-2.9-0.4-5.1-0.7-6.9-1.8c-1.8-0.7-2.9-2.2-3.3-3.6c-0.7-1.5-1.1-3.6-1.1-6.6c0-2.6,0.4-4.7,1.1-6.6
		c0.7-1.5,1.8-2.9,3.3-3.6c1.8-0.7,4-1.5,6.9-1.8c2.9-0.4,6.6-0.4,10.9-0.4c1.5,0,3.3,0,5.5,0s4.4,0,6.9,0.4c2.6,0,4.7,0.4,7.3,0.4
		c2.6,0,4.7,0.4,6.9,0.4V464.4z M169.3,459.7c-0.7,1.5-1.8,2.9-3.3,3.6c-1.8,0.7-4,1.5-6.9,1.8c-2.9,0.4-6.6,0.4-10.9,0.4
		c-1.5,0-3.3,0-5.5,0s-4.4,0-6.9-0.4c-2.6,0-4.7-0.4-7.3-0.4c-2.6,0-4.7-0.4-6.9-0.4v-22.3c2.2,0,4.4-0.4,6.9-0.4
		c2.6,0,5.1-0.4,7.3-0.4c2.6,0,4.7-0.4,6.9-0.4c2.2,0,4,0,5.5,0c4.4,0,8,0,10.9,0.4c2.9,0.4,5.1,0.7,6.9,1.8
		c1.8,0.7,2.9,2.2,3.3,3.6c0.7,1.5,1.1,3.6,1.1,6.6C170,456.1,170,458.2,169.3,459.7z"/>
	<path fill="#2A9FFF" d="M289.4,428c-3.6-2.2-8-4-13.9-4.7s-12.8-1.1-21.2-1.1c-6.2,0-12,0.4-17.1,1.1c-5.1,0.7-9.1,1.8-12.4,2.9
		l-2.9-2.9h-1.5h-14.2v55.1v31l21.9-8.4v-20.1c2.6,0.7,5.1,1.5,8,1.8c2.6,0.4,5.5,0.7,8.4,1.1c3.3,0.4,6.6,0.4,9.9,0.4
		c8.4,0,15.3-0.4,21.2-1.1c5.8-0.7,10.2-2.6,13.9-4.7s6.2-5.5,7.7-9.5c1.5-4,2.2-9.1,2.2-15.7c0-6.6-0.7-11.7-2.2-15.7
		C295.2,433.4,292.6,430.5,289.4,428z M275.1,459.7c-0.7,1.5-1.8,2.9-3.3,3.6c-1.8,0.7-4,1.5-6.9,1.8c-2.9,0.4-6.6,0.4-10.9,0.4
		c-1.5,0-3.3,0-5.5,0c-2.2,0-4.4,0-6.9-0.4c-2.6,0-4.7-0.4-7.3-0.4c-2.6,0-4.7-0.4-6.9-0.4v-22.3c2.2,0,4.4-0.4,6.9-0.4
		c2.6,0,4.7-0.4,7.3-0.4s4.7-0.4,6.9-0.4c2.2,0,4,0,5.5,0c4.4,0,8,0,10.9,0.4c2.9,0.4,5.1,0.7,6.9,1.8c1.8,0.7,2.9,2.2,3.3,3.6
		c0.7,1.5,1.1,3.6,1.1,6.6S275.8,458.2,275.1,459.7z"/>
	<path fill="#2A9FFF" d="M383.5,464.4c-2.2,0-4.4,0.4-6.9,0.4c-2.6,0-4.7,0.4-7.3,0.4c-2.2,0-4.4,0.4-6.6,0.4c-2.2,0-4,0-5.5,0
		c-4.4,0-8,0-10.9-0.4c-2.9-0.4-5.1-0.7-6.9-1.8c-1.8-0.7-2.9-2.2-3.3-3.6c-0.7-1.5-1.1-3.6-1.1-6.6v-29.6h-23v29.6
		c0,6.6,0.7,11.7,2.2,15.7c1.5,4,4,7.3,7.7,9.5c3.6,2.2,8.4,4,13.9,4.7c5.8,0.7,12.8,1.1,21.2,1.1c6.2,0,12-0.4,17.1-1.1
		c5.1-0.7,9.5-1.8,12.4-2.9l2.6,2.9h15.7v-59.5h-21.9v40.9H383.5z"/>
	<path fill="#2A9FFF" d="M482.7,465.2c-2.2,0-4,0-6.2,0.4c-1.8,0-4,0.4-5.5,0.4c-1.8,0-3.3,0-4.4,0c-4.4,0-8,0-10.9-0.4
		c-2.9-0.4-5.1-0.7-6.9-1.8c-1.8-0.7-2.9-2.2-3.3-3.6c-0.7-1.5-1.1-3.6-1.1-6.6c0-2.9,0.4-4.7,1.1-6.6c0.7-1.5,1.8-2.9,3.3-3.6
		c1.8-0.7,4-1.5,6.9-1.8c2.9-0.4,6.6-0.4,10.9-0.4c2.6,0,5.5,0,9.1,0.4c3.6,0,7.3,0.4,11.3,0.7c3.6,0.4,7.3,0.4,10.2,0.7
		c2.9,0.4,5.1,0.4,5.8,0.4v-17.5c-0.7,0-2.6-0.4-5.1-0.7c-2.6-0.4-5.5-0.7-8.8-1.1c-3.3-0.4-7.3-0.7-10.9-1.1
		c-4-0.4-7.7-0.4-11.7-0.4c-8.4,0-15.3,0.4-21.2,1.1c-5.8,0.7-10.6,2.6-13.9,4.7c-3.6,2.2-6.2,5.5-7.7,9.5c-1.5,4-2.2,9.1-2.2,15.7
		c0,6.6,0.7,11.7,2.2,15.7c1.5,4,4,7.3,7.7,9.5c3.6,2.2,8,4,13.9,4.7c5.8,0.7,12.8,1.1,21.2,1.1c4,0,8.4,0,12.8-0.4
		c4.4-0.4,8.4-0.7,12-1.1c4.4-0.4,8.4-1.1,12.4-1.5v-17.5c-5.1,0.4-9.9,0.7-14.6,1.1C487.1,464.8,484.9,464.8,482.7,465.2z"/>
	<path fill="#2A9FFF" d="M681.2,423.2c-5.5-0.7-10.9-1.1-16.4-1.1c-8.4,0-15.3,0.4-21.2,1.1c-5.8,0.7-10.6,2.6-13.9,4.7
		c-3.6,2.2-6.2,5.5-7.7,9.5c-1.5,4-2.2,9.1-2.2,15.7c0,6.6,0.7,11.7,2.2,15.7c1.5,4,4,7.3,7.7,9.5c3.6,2.2,8.4,4,13.9,4.7
		c5.8,0.7,12.8,1.1,21.2,1.1c6.2,0,12-0.4,17.1-1.5c5.1-0.7,9.5-1.8,12.4-2.9l2.6,2.9h15.7v-55.1c-5.5-1.1-10.9-1.8-16.1-2.9
		C692.2,424.3,687.1,423.6,681.2,423.2z M691.4,464.4c-2.2,0-4.4,0.4-6.9,0.4c-2.6,0-4.7,0.4-7.3,0.4c-2.6,0-4.7,0.4-6.9,0.4
		s-4,0-5.5,0c-4.4,0-8,0-10.9-0.4c-2.9-0.4-5.1-0.7-6.9-1.8c-1.8-0.7-2.9-2.2-3.3-3.6c-0.7-1.5-1.1-3.6-1.1-6.6
		c0-2.9,0.4-4.7,1.1-6.6c0.7-1.5,1.8-2.9,3.3-3.6c1.8-0.7,4-1.5,6.9-1.8c2.9-0.4,6.6-0.4,10.9-0.4c1.5,0,3.3,0,5.5,0
		c2.2,0,4.4,0,6.9,0.4c2.2,0,4.7,0.4,7.3,0.4c2.6,0,4.7,0.4,6.9,0.4V464.4z"/>
	<path fill="#2A9FFF" d="M803.1,464.4c-2.2,0-4.4,0.4-6.9,0.4s-4.7,0.4-7.3,0.4c-2.2,0-4.4,0.4-6.6,0.4s-4,0-5.5,0
		c-4.4,0-8,0-10.9-0.4c-2.9-0.4-5.1-0.7-6.9-1.8c-1.8-0.7-2.9-2.2-3.3-3.6c-0.7-1.5-1.1-3.6-1.1-6.6v-29.6h-23v29.6
		c0,6.6,0.7,11.7,2.2,15.7s4,7.3,7.7,9.5c3.6,2.2,8.4,4,13.9,4.7c5.8,0.7,12.8,1.1,21.2,1.1c6.2,0,12-0.4,17.1-1.1
		c5.1-0.7,9.5-1.8,12.4-2.9l2.6,2.9h15.7v-59.5h-21.5v40.9H803.1z"/>
	<polygon fill="#2A9FFF" points="514.5,440 550.2,440 550.2,483.1 571.8,483.1 571.8,440.4 571.4,440 607.5,440 607.5,423.6 
		514.5,423.6 	"/>
	<path fill="#2A9FFF" d="M867.3,423.2c-4.4,0.7-8,2.6-11.3,4.7c-2.9,2.2-5.1,5.5-6.9,9.5c-1.5,4-2.2,9.1-2.2,15.7V467
		c-1.8,0.4-4,1.1-6.6,1.5H840v17.1c1.8,0,4-0.4,5.8-0.4c4-0.4,8-0.7,12-1.5c4-0.4,7.7-1.1,10.9-1.8v-1.1l0,0v-28.1
		c0-2.6,0.4-4.4,0.7-5.8c0.4-1.5,1.5-2.9,2.6-3.6c1.1-1.1,2.6-1.5,4.4-1.8c4.4-1.5,32.5,0.4,34.7,0.7v40.9h21.5v-56.9
		C929.7,425.8,884.5,419.9,867.3,423.2z"/>
	<path fill="#2A9FFF" d="M777.2,410.8c-6.9,0-12,5.1-12,12.8h24.1C789.2,415.9,784.5,410.8,777.2,410.8z"/>
</g>
<g>
	<g>
		<g>
			<g>
				<path fill="#2A9FFF" d="M551,266c0,0-56.9-77.7-66.8-122.2c-9.9-44.5-0.7-84.3,20.1-89s46,27.7,55.8,72.2
					C569.9,171.4,551,266,551,266z"/>
			</g>
		</g>
		<path fill="#2A9FFF" d="M295.9,240c0,0,8.4,62,0,90.5c-8.4,28.5-25.9,48.2-39,44.2c-13.5-4-17.5-29.9-9.1-58.4
			C255.8,287.8,295.9,240,295.9,240z"/>
		<path fill="#2A9FFF" d="M252.5,270.3c0,0-8,53.6-21.5,75.2c-13.5,21.5-32.8,33.9-43.1,27.7c-10.2-6.6-7.3-29.2,6.2-50.7
			C207.6,300.6,252.5,270.3,252.5,270.3z"/>
		<path fill="#2A9FFF" d="M212,285.7c0,0-24.8,39.8-43.4,52.2c-18.2,12.4-37.9,15.3-43.8,6.9c-5.8-8.8,4.4-25.9,22.6-38.3
			C166,294,212,285.7,212,285.7z"/>
		<path fill="#2A9FFF" d="M154.7,292.2c0,0-31.7,25.5-50.4,30.3c-18.6,5.1-35.4,1.8-37.9-6.9c-2.2-8.8,10.9-19.7,29.2-24.8
			C114.6,286,154.7,292.2,154.7,292.2z"/>
		<path fill="#2A9FFF" d="M103.3,279.5c0,0-29.9,15.3-45.6,16.1c-15.7,0.7-28.8-4.4-29.2-11.7c-0.4-7.3,12-14.2,27.7-15
			C71.9,267.8,103.3,279.5,103.3,279.5z"/>
		<path fill="#2A9FFF" d="M67.1,260.5c0,0-29.9,5.5-43.8,1.8C9.5,259-0.7,250.6,1.1,244.1c1.5-6.6,14.2-9.1,28.1-5.8
			C43.1,241.9,67.1,260.5,67.1,260.5z"/>
		<path fill="#2A9FFF" d="M344.4,223.3c0,0,21.2,69,17.1,102.9c-4,33.9-20.1,59.8-36.1,58c-16.1-1.8-25.9-31-21.9-64.9
			C308,285.7,344.4,223.3,344.4,223.3z"/>
		<path fill="#2A9FFF" d="M380.6,177.3c0,0,47.8,68.2,55.8,106.9c7.7,38.7-0.7,73-19,76.6S378,336,370.4,297.3
			C362.7,258.7,380.6,177.3,380.6,177.3z"/>
		<path fill="#2A9FFF" d="M411.2,124.7c0,0,76.3,58.7,98.2,98.9c21.9,40.1,24.1,80.6,5.1,90.9c-19,10.2-51.8-13.9-73.7-53.6
			C419.2,220.7,411.2,124.7,411.2,124.7z"/>
	</g>
	<g>
		<path fill="#2A9FFF" d="M685.6,224.4c0,0,16.4-60.2,35.4-83.2c18.6-23,42.7-34.3,53.3-25.5c10.9,8.8,4.4,34.7-14.2,57.3
			C741.4,195.9,685.6,224.4,685.6,224.4z"/>
		<path fill="#2A9FFF" d="M737.4,213.4c0,0,28.1-46.3,49.3-60.9c21.2-14.6,43.8-18.6,50.4-8.4c6.9,9.9-4.4,29.9-25.5,44.5
			C790.7,203.2,737.4,213.4,737.4,213.4z"/>
		<path fill="#2A9FFF" d="M780.8,214.9c0,0,38.3-27,60.2-31c21.9-4.4,40.9,0.4,43.1,10.9c2.2,10.2-13.9,21.9-35.8,26.3
			C826.5,225.1,780.8,214.9,780.8,214.9z"/>
		<path fill="#2A9FFF" d="M836.3,230.9c0,0,39-10.9,58-8.4s33.2,12,32.1,21.2c-1.1,9.1-17.5,14.2-36.9,11.3
			C870.6,252.5,836.3,230.9,836.3,230.9z"/>
		<path fill="#2A9FFF" d="M878.6,263c0,0,33.6-2.6,48.2,2.9c15,5.5,24.8,15.3,22.3,22.3c-2.6,6.9-16.8,8.4-31.4,2.9
			C903.1,286,878.6,263,878.6,263z"/>
		<path fill="#2A9FFF" d="M904.2,294.8c0,0,29.6,6.9,41.2,15.3c11.7,8.8,17.5,20.1,13.5,25.2c-4,5.5-16.8,2.9-28.1-5.8
			C919.1,321,904.2,294.8,904.2,294.8z"/>
		<path fill="#2A9FFF" d="M634.5,220.7c0,0,7.3-71.9,24.1-101.4c16.8-29.6,42-47.4,55.8-39.4c13.9,8,11.7,38.3-5.1,68.2
			C692.5,177.7,634.5,220.7,634.5,220.7z"/>
		<path fill="#2A9FFF" d="M583.1,249.2c0,0-17.5-81.7-9.5-120c8-38.7,29.2-66.8,47.4-63.1c18.2,3.6,26.6,37.9,18.6,76.6
			C631.6,180.9,583.1,249.2,583.1,249.2z"/>
	</g>
</g>
</svg>
