<?xml version="1.0" encoding="utf-8"?>
<!-- Generator: Adobe Illustrator 18.1.1, SVG Export Plug-In . SVG Version: 6.00 Build 0)  -->
<!DOCTYPE svg PUBLIC "-//W3C//DTD SVG 1.1//EN" "http://www.w3.org/Graphics/SVG/1.1/DTD/svg11.dtd">
<svg version="1.1" id="Layer_1" xmlns="http://www.w3.org/2000/svg" xmlns:xlink="http://www.w3.org/1999/xlink" x="0px" y="0px"
	 viewBox="0 0 20 20" enable-background="new 0 0 20 20" xml:space="preserve">
<g>
	<path fill="#FFFFFF" d="M2.4,3.9v12.2c-1.1-1.7-2.2-3.8-2.2-6.1C0.2,7.7,1.3,5.6,2.4,3.9z"/>
	<path fill="#FFFFFF" d="M17,16.7c-1.8,1.9-4.4,3-7.2,3c-2.6,0-4.8-1-6.7-2.6V3.7L6,16.9h0.9L9.6,3.6v13.7h0.8V2.8H8.7L6.4,15.5
		L3.9,2.8H3.4C5.1,1.3,7.4,0.2,10,0.2c2.7,0,5.2,1.1,7,2.9l-3.5,7.1V2.8h-0.8v14.5h0.8v-5.4l1.1-2.2L17,16.7z"/>
	<path fill="#FFFFFF" d="M19.8,10c0,2.3-0.8,4.4-2.1,6.1l-2.8-7.4l2.6-5C18.9,5.4,19.8,7.6,19.8,10z"/>
</g>
</svg>
